<svg xmlns="http://www.w3.org/2000/svg" viewBox="0 0 128.14 124.12"><defs><style>.cls-1{fill:#1d1d1b;}</style></defs><g id="Calque_2" data-name="Calque 2"><g id="Ordinateur"><path class="cls-1" d="M94.54,34.77c0-.15.49-1.49.53-1.63a65.45,65.45,0,0,1,6-12.82,61.22,61.22,0,0,1,7.14-10,57.39,57.39,0,0,1,9.53-8.83c.69-.51,1.41-1,2.13-1.49-.34,0-1.24,0-1.57.07a10,10,0,0,0-1.63.34A9.89,9.89,0,0,0,114,1.64a24.83,24.83,0,0,0-4.54,3.9,75.12,75.12,0,0,0-10.8,15.3c-.44.77-.86,1.55-1.27,2.34C96.47,25,95.51,27,94.75,28.81a62.31,62.31,0,0,0-2.28,6c-1.14.1-2.79.16-3.93.24s-2.53.21-3.8.34c-2.53.26-4.79.55-7.35,1A136.9,136.9,0,0,0,62.31,40c-2.59.79-5,1.74-7.57,2.73.13-1.43.17-2.58.19-4,0-7-1.21-14.49-4.58-20.73-1.54-2.83-4.28-5.6-7.8-5.14a20.21,20.21,0,0,0-2.76.68l-1,.26a1.8,1.8,0,0,1-.22.06l0,0a6.42,6.42,0,0,0-1.39.52,8.56,8.56,0,0,0-3.37,3.33c-4.43,7.59-3.87,17-3.73,25.49.06,3.24.31,6.45.57,9.68,0,.37.39,3,.18,3.16l-.23.17c-9.85,7.68-18.35,17.19-23.8,28.47A73.4,73.4,0,0,0,.87,101.88c-1,4.86-1.42,10.57.27,15.37a10.17,10.17,0,0,0,11.49,6.69A23.91,23.91,0,0,0,21,121a25,25,0,0,0,5.76-5.38c8.55-10.59,10.38-25,9.87-38.17-.28-7.48-1.27-14.91-2.09-22.36a84.3,84.3,0,0,1,16.35-9.79c-1,9.19-4.34,17.84-8.17,26.13-1.56,3.37-3,6.89-4.82,10.1l.26-.06.17,0s.07,0,.22,0l.08,0h0a24.36,24.36,0,0,0,3.3-.91,2.48,2.48,0,0,0,1.26-1.25c.49-1,.57-2.23,1.12-3.23a6,6,0,0,1,1.09.78c2.41,2.16,3.93,5.8,5.19,8.72,3.35,7.79,3.83,16,5.59,24.22,0,.18.38,1.8.65,1.8h0c1.21-.24,2.36-.51,3.56-.75.91-.18,1.66-.29,2.57-.46,0,0,.32,0,.33-.08A308.8,308.8,0,0,0,74.4,64.78c.25,3.51.09,7.07.25,10.6a150.57,150.57,0,0,0,2.18,19.53c.06.3.74,4.72.84,4.72l.2,0a40.25,40.25,0,0,0,5.48-.92c3.9-5.88,4.4-12.6,5.41-19.46,1.2-8.14,1.35-16.31,2.44-24.47.85-6.45,1.26-12.45,3-18.71,6.07-.22,12.62-.15,18.66.2,3.67.21,6.33.79,10,1.15a4.17,4.17,0,0,0,1.64-.47c1.07-.4,2.15-.76,3.26-1.07a3.37,3.37,0,0,0,.42-.17C122.27,34.52,105.43,34.13,94.54,34.77Zm-66.66,71c-1.72,4.55-3.76,9.07-7.13,12.58a17.88,17.88,0,0,1-5.87,4l-1,0a8,8,0,0,1-3.06-.85,8,8,0,0,1-4.8-4.29,14.27,14.27,0,0,1-1.74-6.59A51,51,0,0,1,6.38,95.38a77.18,77.18,0,0,1,18.4-31.53q3-3.1,6.19-5.89c.05.48.11,1,.17,1.46C32.94,75,33.59,90.79,27.88,105.82ZM46.37,46.46a84.87,84.87,0,0,0-12,7,126.71,126.71,0,0,1-.85-23,33.93,33.93,0,0,1,1.86-9.47A16.12,16.12,0,0,1,39.07,15a4.78,4.78,0,0,1,.72-.63,2.1,2.1,0,0,1,.83-.08,4.26,4.26,0,0,1,2.36.62,9.8,9.8,0,0,1,3.26,3.42A34.94,34.94,0,0,1,50,28.44a49.07,49.07,0,0,1,1,15.83C49.42,44.88,47.88,45.75,46.37,46.46Zm42.26,6.17c-2,14.18-3.12,28.79-7.39,42.45-4-15.36-2.8-31.65-5.81-47.25l-2.4.66c-1.65,18.69-6.25,38.16-12.14,56-1.87-9.26-5.08-19-10.33-26.88a7.88,7.88,0,0,0-2.4-2.6,3.5,3.5,0,0,0-1.54-.47,2.68,2.68,0,0,0-.8.06c-.22,0-.47.2-.69.08s-.18-.37-.07-.58l.42-.8c.28-.54.55-1.08.82-1.62.53-1.09,1-2.19,1.52-3.3s1-2.22,1.39-3.35.86-2.26,1.26-3.4.76-2.3,1.11-3.45.67-2.33,1-3.5.58-2.35.84-3.53.48-2.37.68-3.56.34-2,.49-3.21c0-.19,0-.36.07-.56,3.23-1.19,6.45-2.43,9.76-3.36s6.7-1.74,10-2.38,6.19-1.12,9.59-1.5c.6-.07,8.12-.66,8.12-.64A123.37,123.37,0,0,0,88.63,52.63Z"/></g></g></svg>