<svg xmlns="http://www.w3.org/2000/svg" viewBox="0 0 174.43 168.96"><defs><style>.cls-1{fill:#fff;}</style></defs><g id="Calque_2" data-name="Calque 2"><g id="Ordinateur"><path class="cls-1" d="M128.7,47.33c0-.2.66-2,.72-2.22a89.16,89.16,0,0,1,8.1-17.45A84,84,0,0,1,147.23,14a79,79,0,0,1,13-12c1-.7,1.92-1.38,2.91-2-.46,0-1.68,0-2.14.1a13.86,13.86,0,0,0-2.22.45,13.58,13.58,0,0,0-3.55,1.68A33.68,33.68,0,0,0,149,7.55c-5.9,6.18-10.53,13.39-14.71,20.82-.59,1.05-1.17,2.11-1.72,3.19C131.33,34,130,36.68,129,39.22a80.06,80.06,0,0,0-3.1,8.19c-1.55.12-3.8.21-5.35.32-1.73.12-3.44.28-5.17.46-3.46.35-6.53.75-10,1.33a186.47,186.47,0,0,0-20.52,5C81.29,55.57,78,56.85,74.52,58.2c.17-1.94.23-3.5.25-5.46.08-9.56-1.64-19.71-6.24-28.21-2.08-3.86-5.82-7.62-10.61-7a30.76,30.76,0,0,0-3.76.92c-.46.13-.92.24-1.39.36-.09,0-.2.05-.29.08l-.07,0a9.63,9.63,0,0,0-1.9.71,11.73,11.73,0,0,0-4.58,4.53c-6,10.33-5.26,23.19-5.07,34.71.07,4.41.41,8.78.77,13.17,0,.5.53,4.08.24,4.3l-.3.23C28.15,87,16.57,100,9.16,115.32a99.74,99.74,0,0,0-8,23.37c-1.34,6.61-1.93,14.39.37,20.92a13.84,13.84,0,0,0,15.64,9.1c3.92-.76,8-1.84,11.36-4a33.62,33.62,0,0,0,7.83-7.32c11.64-14.42,14.13-34,13.45-52C49.44,95.23,48.1,85.11,47,75A114.71,114.71,0,0,1,69.23,61.63c-1.3,12.52-5.9,24.3-11.12,35.57-2.12,4.59-4,9.39-6.55,13.76l.35-.08.23-.06s.09,0,.3-.07l.11,0h0a32.13,32.13,0,0,0,4.5-1.24,3.27,3.27,0,0,0,1.71-1.7c.68-1.39.77-3,1.53-4.39a8.1,8.1,0,0,1,1.48,1.05c3.28,2.95,5.35,7.91,7.06,11.88,4.57,10.61,5.22,21.83,7.61,33,0,.24.52,2.45.89,2.45h0c1.65-.33,3.21-.69,4.85-1,1.24-.25,2.25-.39,3.5-.63,0,0,.43-.05.45-.11a420.83,420.83,0,0,0,15.07-61.79c.35,4.79.14,9.63.35,14.43a204.45,204.45,0,0,0,3,26.59c.07.4,1,6.43,1.14,6.42l.27,0c1.16-.11,7.26-1,7.46-1.25,5.31-8,6-17.16,7.37-26.49,1.63-11.09,1.84-22.2,3.31-33.32,1.17-8.77,1.73-17,4.06-25.47,8.27-.29,17.18-.2,25.41.28,5,.29,8.62,1.07,13.59,1.56a5.7,5.7,0,0,0,2.22-.63c1.47-.56,2.93-1,4.44-1.47a3.58,3.58,0,0,0,.57-.23C166.45,47,143.52,46.46,128.7,47.33ZM38,144.05c-2.36,6.2-5.13,12.34-9.71,17.13a24.41,24.41,0,0,1-8,5.45l-1.32,0c-1.63,0-2.64-.59-4.17-1.15a10.84,10.84,0,0,1-6.53-5.84,19.43,19.43,0,0,1-2.37-9,69.45,69.45,0,0,1,2.82-20.87,105,105,0,0,1,25-42.92q4-4.22,8.42-8c.08.65.16,1.32.24,2C44.85,102.08,45.73,123.59,38,144.05Zm25.16-80.8a115.24,115.24,0,0,0-16.38,9.51c-1.12-10.42-1.93-20.86-1.16-31.37A46.43,46.43,0,0,1,48.12,28.5a21.93,21.93,0,0,1,5.07-8,5.29,5.29,0,0,1,1-.86,2.7,2.7,0,0,1,1.13-.11,5.91,5.91,0,0,1,3.21.84A13.42,13.42,0,0,1,63,25a47.69,47.69,0,0,1,5.12,13.73,67.06,67.06,0,0,1,1.3,21.54C67.27,61.09,65.18,62.28,63.12,63.25Zm57.53,8.39c-2.76,19.31-4.24,39.2-10.06,57.79-5.5-20.91-3.81-43.09-7.91-64.32l-3.26.9C97.17,91.45,90.9,118,82.89,142.21c-2.55-12.6-6.91-25.9-14.06-36.59a10.79,10.79,0,0,0-3.27-3.54,4.81,4.81,0,0,0-2.09-.64,4,4,0,0,0-1.09.08c-.31.07-.64.28-1,.11s-.24-.5-.09-.78.39-.73.57-1.1c.38-.73.75-1.47,1.11-2.21.72-1.48,1.42-3,2.08-4.48S66.39,90,67,88.5s1.17-3.08,1.71-4.63,1-3.13,1.52-4.7.91-3.17,1.32-4.76.79-3.2,1.13-4.81.66-3.22.94-4.85.45-2.73.66-4.36c0-.26.07-.5.1-.76,4.39-1.62,8.77-3.32,13.28-4.57s9.12-2.37,13.66-3.26,8.42-1.51,13-2c.82-.1,11.06-.9,11.06-.87A167.62,167.62,0,0,0,120.65,71.64Z"/></g></g></svg>