<svg xmlns="http://www.w3.org/2000/svg" viewBox="0 0 963.13 656.28"><defs><style>.cls-1{fill:#530e33;}</style></defs><g id="Calque_2" data-name="Calque 2"><g id="Ordinateur"><path class="cls-1" d="M841.85,449.53c-198.33,127.53-462.26,109.74-663.7-1.72-26.18-14.64-52-29.77-77.48-45.67-29.46-18.92-60.21-37.08-85-62.22-5.49-6-13-15.64-7-23.76l4.88-5.75,9.74-11.47c116.55-130.07,298-185.6,468.39-152.22a532.7,532.7,0,0,1,170.08,64.05c86.68,51.3,162.06,124.86,206.66,215.82l1.77,3.46c-9.3,6.69-18.56,13.45-28.3,19.48Zm-4.76-7.71a277.81,277.81,0,0,0,24.64-16.73s-1.28,5.66-1.29,5.65C821.58,362.25,765.6,304.57,701.55,259.2c-61.94-43.63-132.32-75.46-206.65-90.63-164.85-34.43-351.53,6.25-466.74,134.79l-9.68,11.23-4.83,5.6a4.51,4.51,0,0,0-.46,4.19c3.09,8.13,11.27,15.12,18,21,7.47,6.32,15.44,12.17,23.55,17.82,32.8,22.24,67.66,41.51,102.81,59.83,201.61,104.85,477.81,138.52,679.56,18.8Z"/><path class="cls-1" d="M283.07,297.71c-10.33,88.81,74,159,159.32,133.05C524.36,406,557.06,305,504.64,237.09a123.73,123.73,0,0,0-81.13-47.59C355.16,179.57,291,229,283.07,297.71Zm-6.15-.73c15-119.18,163.55-162.5,240.38-69.88,48.14,58.45,37.57,148.12-22.85,193.76C398.18,493.07,263.79,416.37,276.92,297Z"/><circle class="cls-1" cx="409" cy="312.56" r="38.97"/><path class="cls-1" d="M409,356a44.21,44.21,0,0,1-5.12-.3,43.43,43.43,0,1,1,5.12.3Zm-.1-77.94a34.51,34.51,0,0,0-34.19,30.46h0A34.49,34.49,0,1,0,413,278.3,35.66,35.66,0,0,0,408.93,278.06Z"/><path class="cls-1" d="M.15,217.38c-2.9-58.3,35.49-113.72,89.08-134.65C115.45,72,143.54,68.56,170.87,68.34c60.68-1.29,120.25,18.19,180.46,10.43,40.72-5.78,43.85-45.55,10.94-65.69C346.43,3.59,323-.76,307.54,11.43c-7.59,6.1-9.53,17.71-1.77,24.45,6.69,6.49,17.79,10.87,26.58,6.37l.73,1.3c-12.12,6.51-30.67-2-34.62-15-1.78-7.18,1.63-14.72,7-19.49C322-4.84,347.08-1,364.77,8.86c38.73,22.41,34.17,69.57-12.16,77.55-60.5,9.76-121.18-8.08-181.49-5.19C119.86,82,65.93,100.11,38.2,145.13a118.63,118.63,0,0,0-18.36,71.28l-19.69,1Z"/><path class="cls-1" d="M958.32,404.91c-52-13.72-83.1-62.45-105.35-107.67-29.31-57.15-62.75-116.82-120.21-149.58a208.84,208.84,0,0,0-45.2-18.28l.34-1.45a211.65,211.65,0,0,1,46.72,16.24c68.09,34.36,105.73,104.39,142.81,167.48,20.13,32.18,47.24,64.42,85.7,72.69l-4.81,20.57Z"/><path class="cls-1" d="M800.76,546.71c-34.31-.38-103.26,22.9-119.89,55.27-10.92,20.56,3.7,45.85,26.35,48.9,11.37,1.82,27.25-5,27.24-18-1.14-9.78-9.82-18.3-19.55-19.71l.14-1.49c9.35.86,17.75,7.57,21.25,16.22,6.76,17.2-14.49,30.16-29.64,28.17-16-1.43-31-13.14-35.67-28.81-10.61-37.58,29.56-62.87,58.23-76.51,22-10.41,45.49-19,71.22-20.39l.32,16.34Z"/><path class="cls-1" d="M109.65,472c1.73,20.11,27.41,32.92,44.39,42.09A710.42,710.42,0,0,0,285.73,565.1c22.77,6.36,45.9,11.46,69.24,15.53l-.22,1.48c-23.55-3-47-7-70.21-12.29A719.16,719.16,0,0,1,149,524.53c-16.65-7.7-34.46-16.4-46.35-31.66a38.15,38.15,0,0,1-8-20.11l15-.8Z"/></g></g></svg>