<svg xmlns="http://www.w3.org/2000/svg" viewBox="0 0 409.03 1047.28"><defs><style>.cls-1{fill:#530e33;}</style></defs><g id="Calque_2" data-name="Calque 2"><g id="Ordinateur"><path class="cls-1" d="M223.36,74.17a460,460,0,0,1-13.22,94c-7.21,29.67-16.58,58.75-25.27,88-19.28,64.85-36.69,131.94-37.47,200a334.5,334.5,0,0,0,13.75,99.93c9.62,32.25,23,63.36,36,94.34,25.48,60.5,52.5,120.4,75.3,182,22.69,61.29,41.19,124.52,48.67,189.62q1.4,12.18,2.27,24.42c.11,1.46,2.53.89,2.43-.49-4.66-64.1-20.44-126.7-41.34-187.31-21.38-62-47.89-122.15-73.67-182.46-26.37-61.7-55.78-124.17-60.28-192.07-4.58-69.35,11.36-138.57,30-204.88,16.75-59.47,38.08-117.86,43.66-179.82.76-8.36,1.24-16.74,1.51-25.14.05-1.52-2.37-1.45-2.42-.08Z"/><path class="cls-1" d="M152.64,500.85c1.91-8.18,3.73-16.48,9.13-23.18,5.08-6.29,12.2-10.57,19-14.67l-2.14-.31c-.73,8.73-1.38,17.5-2.91,26.13-.12.65,2.35.74,2.5-.1,1.53-8.63,2.17-17.4,2.91-26.13.06-.72-1.82-.5-2.15-.3-7,4.19-14.17,8.52-19.43,14.88C154,484,152.11,492.54,150.14,501c-.14.62,2.3.75,2.5-.1Z"/><path class="cls-1" d="M154.9,519.8c3.55-10.1,10.16-18.91,17.93-26.18a85.41,85.41,0,0,1,12.47-9.7c2.45-1.57,5-3,7.35-4.72a38.28,38.28,0,0,0,5.95-5.85c4.46-5.27,8.68-10.76,13-16.14l-2.4-.29c2.3,15.69-6.88,30.17-10,45.09-1.62,7.63-2.23,15.44-4,23a50.06,50.06,0,0,1-10.33,20.83c-5.49,6.64-12.25,12.49-20.55,15.25-1.55.51,0,1.93,1.08,1.56a45.38,45.38,0,0,0,19-12.83c5.33-5.84,9.64-12.3,12-19.87,2.44-7.73,3.14-15.84,4.52-23.78s4.16-15.68,6.8-23.42c2.86-8.39,5.27-17.09,4-26-.15-1-1.92-.88-2.39-.29-3.91,4.87-7.78,9.77-11.72,14.61a45.22,45.22,0,0,1-5.88,6.18,71.32,71.32,0,0,1-7.81,5.17A85.18,85.18,0,0,0,161,503.52a59.26,59.26,0,0,0-8.4,15.55c-.41,1.17,2,1.7,2.34.73Z"/><path class="cls-1" d="M151.22,497.92c-.41-4.26-2.74-8.22-4.72-11.93a37.68,37.68,0,0,0-7.44-9.51,82.2,82.2,0,0,0-9.93-7.81c-2-1.36-3.94-2.7-5.92-4l-3.28-2.23c-.63-.43-1.52-1.18-2.31-.69s-.76,1.75-.89,2.48l-.77,4.42-1.55,8.85c-.11.67,1.32,2.61,1.48,1.65l2.36-13.51a3.81,3.81,0,0,1,.32-1.38c.41-.6,1-.24,1.53.09,1,.64,1.92,1.3,2.87,1.95l5.35,3.64c6,4.13,12.23,8.58,16.23,14.83a59.24,59.24,0,0,1,2.89,5.39,18.71,18.71,0,0,1,2.29,6.58,2.37,2.37,0,0,0,.83,1.57c.38.24.71.19.66-.35Z"/><path class="cls-1" d="M154.63,518.62c-18.35-12.25-30.43-31.29-44.57-47.75-2-2.32-4-4.65-6.18-6.81a16.82,16.82,0,0,0-7.22-4.67c-.68-.2-1.62.59-1.8,1.2-1.17,4.16.6,8.1,2.33,11.83a59.22,59.22,0,0,1,4.28,13.18c1.81,8.81,2.28,17.86,4.56,26.58a52.26,52.26,0,0,0,12.1,22,104.68,104.68,0,0,0,19.23,16.15c8,5.4,16.78,10,26.17,12.44.81.21,2.58-1.46,1.42-1.76a82.92,82.92,0,0,1-23-10.5A111.46,111.46,0,0,1,122.25,535,52.84,52.84,0,0,1,109,513.73c-2.6-8.37-3.18-17.17-4.67-25.77a66.39,66.39,0,0,0-3.82-14.22c-1.8-4.37-4.84-8.87-3.45-13.8l-1.79,1.21a16.08,16.08,0,0,1,6.85,4.59c1.86,1.9,3.62,3.91,5.37,5.92,3.58,4.13,7,8.4,10.41,12.68,6.78,8.49,13.52,17.08,21.3,24.7a95.28,95.28,0,0,0,13.66,11.21c.72.49,2.65-1.07,1.8-1.63Z"/><path class="cls-1" d="M208.73,460.23c-3,12.35-10.36,22.89-17.92,32.88-3.83,5.06-7.76,10.05-11.38,15.26a160.36,160.36,0,0,0-10.66,17.7,162.69,162.69,0,0,0-9.08,21.17c-.2.58,1.27.41,1.46-.14A160.6,160.6,0,0,1,179.78,510c7.12-10.5,15.65-20,22.25-30.88a67.59,67.59,0,0,0,8.16-19c.15-.62-1.32-.42-1.46.15Z"/><path class="cls-1" d="M177.6,464.1c-2.43,7-6.32,13.45-10.11,19.79-4,6.74-8.22,13.44-11.38,20.65a47.27,47.27,0,0,0-3.49,11.14c-.12.68,1.36.48,1.46-.13,1.2-7.19,4.58-13.85,8.1-20.15C166,488.55,170.3,482,174,475.06A73.9,73.9,0,0,0,179,464.23c.26-.76-1.18-.69-1.37-.13Z"/><path class="cls-1" d="M143.91,511.22c-2.95-9-6.15-17.87-9.92-26.53-3.35-7.7-7-16.41-14-21.51-.37-.26-1.66.31-1.36.53,7.06,5.15,10.72,14,14.09,21.77,3.69,8.53,6.83,17.3,9.74,26.13.13.42,1.58,0,1.45-.39Z"/><path class="cls-1" d="M159.76,543.86a123.13,123.13,0,0,1-30.51-27.52A120.15,120.15,0,0,1,117.76,499c-3.28-6.06-5.8-12.45-8.53-18.76-3-7-6.52-14-11.86-19.59-.29-.3-1.64.22-1.36.52,9.72,10.18,13.09,24.41,19.45,36.61a123.26,123.26,0,0,0,42.94,46.64c.37.24,1.63-.35,1.36-.52Z"/><path class="cls-1" d="M151.31,419.78c6-8.07,15.6-13,24.83-16.33,10.26-3.71,18.55-10.61,27-17.25l1.52-1.19a6,6,0,0,0,.8-.6c.47-.52.22.56.35-.93a22.55,22.55,0,0,1-.94,4.2c-.73,2.58-1.57,5.14-2.56,7.65a54.93,54.93,0,0,1-8,14.19c-1.77,2.22-3.68,4.33-5.36,6.62a73.42,73.42,0,0,0-4.43,7,106.42,106.42,0,0,1-8.86,13.73A89.67,89.67,0,0,1,148,460.07c-.51.28.61,2.51,1.1,2.25A90.69,90.69,0,0,0,175.3,441a89.39,89.39,0,0,0,9.37-13.75c1.47-2.61,2.94-5.23,4.63-7.71s3.76-4.82,5.69-7.19a55.85,55.85,0,0,0,8.68-15.11,82,82,0,0,0,2.65-8.08c.57-2.1,1.38-4.19.1-6.19-.5-.77-1.14-1.25-2-.76a26.48,26.48,0,0,0-3.33,2.58c-2.25,1.77-4.49,3.56-6.77,5.3a80.7,80.7,0,0,1-14.38,9.16c-3,1.4-6.1,2.34-9.13,3.57a57,57,0,0,0-7.5,3.75c-4.95,2.93-9.76,6.52-13.22,11.17-.36.49.91,2.53,1.25,2.08Z"/><path class="cls-1" d="M152,411.35c-1.44-4.41-4.55-7.8-7.75-11A69.66,69.66,0,0,1,135,388.8c-2.79-4.37-5.2-9-7.83-13.43-.8-1.37-2.17-4.73-4.28-4.31-.95.19-1.28,1.29-1.63,2.05-.54,1.17-1,2.36-1.51,3.56a61.47,61.47,0,0,0-3.94,17.7c-.08,1.12,1.91,2.25,2,.72a59.12,59.12,0,0,1,2.81-14.18,55.8,55.8,0,0,1,2.68-6.73c.27-.55.37-.92.86-.42a7,7,0,0,1,.8,1.31c.65,1.09,1.29,2.2,1.92,3.3,4.42,7.74,8.65,15.5,14.93,21.92,3.16,3.23,6.83,6.48,8.28,10.91.17.53.62,1.2,1.25,1.21a.77.77,0,0,0,.7-1.06Z"/><path class="cls-1" d="M150.71,426.86a25.23,25.23,0,0,0-6-11.56c-3.2-3.5-7.24-6.05-11.07-8.77q-6.24-4.42-12.2-9.2a46.67,46.67,0,0,1-5.46-4.76,19.87,19.87,0,0,1-3.51-5.66c-1-2.32-1.78-4.73-2.91-7a29,29,0,0,0-4.59-6.59c-.4-.44-2.51-.49-2.43.4a116.57,116.57,0,0,1-.45,24.77c-.5,3.94-1.1,7.81-.41,11.77a47.41,47.41,0,0,0,3.14,10c5.07,12.06,13.73,22.53,24,30.54a78.23,78.23,0,0,0,18.87,10.91c.69.27,2.95-.48,1.68-1a79.15,79.15,0,0,1-31.05-22.91,73.17,73.17,0,0,1-10.21-16,54,54,0,0,1-3.53-9.77,29.66,29.66,0,0,1-.36-11.15,126.81,126.81,0,0,0,.8-27.4l-2.43.4c3.28,3.55,5.12,7.63,6.88,12.08a20.57,20.57,0,0,0,7.38,10.16c3.82,3.17,7.77,6.19,11.78,9.12s8.05,5.39,11.65,8.59a25,25,0,0,1,7.88,13.29c.19.83,2.66.5,2.49-.25Z"/><path class="cls-1" d="M153.56,405.83c4.7-5.5,11.27-9.61,18-12.24,3.47-1.37,6.73-2.62,9.51-5.2a28.52,28.52,0,0,0,5.94-8.16l-2.48.28a21.89,21.89,0,0,1,1.68,15.19s2.36.22,2.49-.27a21.92,21.92,0,0,0-1.69-15.2c-.15-.3-2.33,0-2.48.28a28.16,28.16,0,0,1-6.15,8.32c-3,2.65-6.5,3.75-10.08,5.27-6.37,2.7-12.59,6.62-17.11,11.91-.15.18.82.11.89.11.32,0,1.27,0,1.52-.29Z"/><path class="cls-1" d="M205.12,384.27a40.47,40.47,0,0,0-3.58,4.27c-1.37,2-2.53,4.1-3.95,6.06a64.86,64.86,0,0,1-10.77,11.62,58.8,58.8,0,0,1-6.41,4.69c-2.38,1.5-4.93,2.7-7.32,4.19a67.88,67.88,0,0,0-12.38,10.57,129.51,129.51,0,0,0-12,14.17c-.11.15,1.18.11,1.43-.25A128.08,128.08,0,0,1,161,426.67a72.37,72.37,0,0,1,12.49-11c2.37-1.56,4.95-2.77,7.37-4.24a60.34,60.34,0,0,0,6-4.25,64.65,64.65,0,0,0,10.74-10.94,68.93,68.93,0,0,0,4.62-6.76,33.22,33.22,0,0,1,4.19-5.27c.31-.34-1.07-.18-1.32.09Z"/><path class="cls-1" d="M185,382.89c.55,4.6-2.21,9.25-5.31,12.42-3.47,3.56-7.88,6.06-11.32,9.67-.6.64.8.75,1.19.34,3.66-3.85,8.48-6.43,12-10.41,3-3.32,5.44-7.84,4.89-12.41-.07-.57-1.52-.23-1.45.39Z"/><path class="cls-1" d="M123.12,373.79c.63,6.54.55,13.43,3.67,19.39,2.74,5.23,7,9.72,8.24,15.67.06.3,1.52,0,1.45-.39-1.19-5.95-5.5-10.44-8.24-15.67-3.13-6-3-12.85-3.67-19.39,0-.27-1.49,0-1.45.39Z"/><path class="cls-1" d="M104.16,376.78c2.7,4.64,4,10,5.19,15.13,1.27,5.48,2.35,11.34,6,15.83,3.24,4,7.75,6.77,11.9,9.75a55.19,55.19,0,0,1,12,11.95c3.16,4.21,6.27,8.51,9.14,12.92.26.39,1.61-.15,1.45-.39-2.34-3.59-4.9-7-7.38-10.51-3.39-4.76-7-9.31-11.69-12.9-4.09-3.16-8.65-5.74-12.32-9.42a20.66,20.66,0,0,1-4.5-6.59,55.69,55.69,0,0,1-2.54-8.68c-1.45-6-2.63-12.11-5.75-17.48-.23-.4-1.6.12-1.45.39Z"/><path class="cls-1" d="M174,303.31a14.11,14.11,0,0,1,4.22-5.08c1.83-1.47,3.67-3,5.53-4.39a107.44,107.44,0,0,1,12.92-8.61l-1.73-1.76c-2.75,4.5-4.22,9.76-5.69,14.79-1.4,4.81-2.66,9.67-4.22,14.44-.27.82,1.54,2.48,1.82,1.6,1.57-4.76,2.83-9.62,4.23-14.43,1.47-5,2.93-10.29,5.69-14.79.42-.69-1-2.15-1.73-1.75a108.61,108.61,0,0,0-13.28,8.89c-3.46,2.71-7.71,5.35-9.59,9.48-.35.77,1.43,2.49,1.83,1.61Z"/><path class="cls-1" d="M167.75,328.2c2.83-6.41,9.62-9.91,15.78-12.42,6.79-2.78,14-4.6,20.51-8a28.07,28.07,0,0,0,9.69-7.84l-1.81-1.52c-.28,5.74-4.38,10.16-7.84,14.36a54.78,54.78,0,0,0-8.51,14.72c-1.11,2.76-2.12,5.56-3.21,8.33a43,43,0,0,1-3.21,7.12c-2.59,4.14-6.77,7.29-10.84,9.86a79.86,79.86,0,0,1-19.43,8.61c-1,.3.45,2.31,1.32,2a84.15,84.15,0,0,0,17.74-7.57c4.45-2.58,8.89-5.7,12-9.85a26.88,26.88,0,0,0,3.22-6c1.21-2.91,2.29-5.88,3.42-8.82,2.17-5.61,4.61-11,8.41-15.66s8.54-9.51,8.86-16c0-.52-1.24-2.26-1.8-1.51-4.75,6.34-12.27,9.32-19.5,11.88-6.64,2.36-13.59,4.48-19.47,8.5a19.8,19.8,0,0,0-7.22,8.2c-.36.82,1.46,2.5,1.87,1.56Z"/><path class="cls-1" d="M170.12,314c-6-11.47-16-20-23-30.77a44,44,0,0,1-4.84-9.76c-.07-.22-1.16-1.88-1.34-1.32-2.34,7-5.17,13.81-4.8,21.29a2.7,2.7,0,0,0,.79,1.53c.17.16.72.65.7.09-.37-7.36,2.46-14.13,4.76-21l-1.35-1.32c4.22,12.43,14.08,21.57,21.92,31.7a64.42,64.42,0,0,1,6.16,9.37c.13.26.67,1.25,1.05,1.16s.06-.77-.06-1Z"/><path class="cls-1" d="M166.45,332.32a113.48,113.48,0,0,0-13.94-19.95c-2.64-2.95-5.52-5.69-8.18-8.63a46.74,46.74,0,0,1-6.85-9.72,104.87,104.87,0,0,1-5.28-12.79c-.14-.37-2.33.39-2.36.82-.59,6.92-.5,13.86-.53,20.79,0,3.44-.08,6.88-.29,10.32s-.49,6.77-.5,10.16a37.1,37.1,0,0,0,3.86,17.21,45.36,45.36,0,0,0,10,12.87,46.78,46.78,0,0,0,15.09,9.22c.42.16,1.12-.16,1.51-.33.09,0,1-.49.72-.6a46.72,46.72,0,0,1-24.28-20.64,35.68,35.68,0,0,1-4.53-16.13c-.3-6.8.64-13.62.72-20.42.09-7.76-.11-15.53.55-23.27l-2.36.82c2.75,7.58,5.66,15,11,21.19,2.57,3,5.44,5.74,8.14,8.64a93.56,93.56,0,0,1,7.67,9.42,134.65,134.65,0,0,1,7.47,11.84c.25.45,2.49-.57,2.36-.82Z"/><path class="cls-1" d="M210.53,302.52c-3.06,2.81-6,5.76-9.11,8.52-3.3,2.93-7,5.36-10.3,8.3-6,5.35-11,11.79-16.84,17.31A41.63,41.63,0,0,1,163,344.58c-.87.39.47.43.85.26,7.39-3.33,13.07-9.33,18.47-15.19,2.77-3,5.5-6.06,8.47-8.87,3.32-3.16,7.11-5.69,10.59-8.64,3.63-3.07,7-6.47,10.46-9.69.34-.32-1-.19-1.32.07Z"/><path class="cls-1" d="M192.1,288.16c-4.35,3.18-6.6,8.12-9.19,12.67-3.2,5.65-7.74,9.9-12.63,14.08-.75.64.41,1.13,1,.66,4.62-4,9.14-8,12.3-13.27,2.82-4.71,5-10.13,9.52-13.48.79-.58-.39-1.08-1-.66Z"/><path class="cls-1" d="M141.28,276.29a49.47,49.47,0,0,0,6.55,24.23c3.92,7,8.93,13.62,10.32,21.7.11.64,1.56.28,1.45-.39-1.33-7.74-6-14.2-9.83-20.86a49.68,49.68,0,0,1-7-24.81c0-.73-1.47-.5-1.46.13Z"/><path class="cls-1" d="M131.41,285.65c0,8.78,1.12,17.76,4.42,26a44.84,44.84,0,0,0,6.66,11.2c2.93,3.69,6.2,7.09,9.11,10.8a79.71,79.71,0,0,1,9.16,14.3c.24.5,1.65,0,1.45-.38a79.4,79.4,0,0,0-7.59-12.31c-2.84-3.81-6.05-7.31-9.11-10.94a48.92,48.92,0,0,1-7.6-11.55,55.5,55.5,0,0,1-3.78-12.67,85.29,85.29,0,0,1-1.27-14.79c0-.45-1.45-.17-1.45.39Z"/><path class="cls-1" d="M202.07,206.92c8.64-7.57,21.54-9.36,28.69-18.78l-2.34,0A82.36,82.36,0,0,1,220,214.22c-.37.71,2.05.76,2.43,0a83.18,83.18,0,0,0,8.47-26.43c.11-.78-2.07-.4-2.35,0-3.54,4.66-8.81,7.46-14,10s-10.41,5-14.74,8.77c-.45.39.23.68.54.75a2,2,0,0,0,1.67-.41Z"/><path class="cls-1" d="M196.76,224.53c5.8-4.85,13.27-6.44,20.5-7.91,7.5-1.52,14.89-3.12,21.46-7.24a89.82,89.82,0,0,0,11.44-9l-2-.47a29,29,0,0,1-7.76,14.87c-2.17,2.2-4.7,4-7,6a56,56,0,0,0-6.26,6.71c-3.82,4.71-7.46,9.5-11.66,13.89a117.36,117.36,0,0,1-13.53,12.07c-5.48,4.18-11.31,7.85-18,9.65-1.49.4-1.08,2.05.42,1.64a51.27,51.27,0,0,0,16.54-8.22,121.35,121.35,0,0,0,14.45-12.23A153.74,153.74,0,0,0,227.72,230a71,71,0,0,1,6.31-7.21c2.3-2.22,4.93-4.07,7.28-6.24a30.75,30.75,0,0,0,9.28-16.8c.19-1-1.55-.88-2-.47a101.86,101.86,0,0,1-10,8.1,39.3,39.3,0,0,1-10.9,5.14c-7.14,2.12-14.64,2.83-21.72,5.2a32.55,32.55,0,0,0-10.8,5.76c-1.25,1,.66,1.87,1.59,1.1Z"/><path class="cls-1" d="M199.16,214.81a120.79,120.79,0,0,0-11-24.34c-2.33-3.92-5.14-7.47-7.65-11.26a68.83,68.83,0,0,1-6.19-12.71,5,5,0,0,0-2.36.84c-3.2,9.77-6.18,19.63-8.73,29.59a9.74,9.74,0,0,0,1.22-.3c.22-.08,1.06-.27,1.13-.54,2.55-10,5.54-19.82,8.74-29.59l-2.36.84a69.8,69.8,0,0,0,6.19,12.71c2.52,3.79,5.33,7.34,7.66,11.26a121.29,121.29,0,0,1,11.05,24.34,5.17,5.17,0,0,0,2.35-.84Z"/><path class="cls-1" d="M192,239.38a98.27,98.27,0,0,0-14.29-27.71,150,150,0,0,0-9.59-12c-3.52-4-7.57-7.79-10-12.57-2.57-5-3.28-10.65-4.88-15.95-.3-1-2.28-1.15-2.47,0A150.17,150.17,0,0,0,149,195.36a89.84,89.84,0,0,0,2.23,22.53,89.1,89.1,0,0,0,7.58,19.54,105.63,105.63,0,0,0,9.28,15.19c3.83,5.07,8.45,9.82,14.42,12.27,1.31.54,2.34-1.07.84-1.69-5.14-2.11-9.23-6.38-12.57-10.69a99,99,0,0,1-9.12-14.62,90.16,90.16,0,0,1-7.52-18.48,80.91,80.91,0,0,1-2.67-21.85c.05-8.75.21-17.54,1.7-26.19H150.7c1.42,4.69,2.16,9.62,4,14.16,2,4.78,5.43,8.58,8.87,12.37a139.9,139.9,0,0,1,18.76,25.39,84.72,84.72,0,0,1,7.13,16.34c.34,1.11,2.83,1,2.45-.24Z"/><path class="cls-1" d="M221.5,120.27a66.79,66.79,0,0,1,13.74-11.51c5.5-3.56,11.08-7,16.62-10.53l-1.49-2L243,120.1c-.21.68,1.4,2.39,1.57,1.85l7.37-23.82c.15-.49-.88-2.34-1.49-2-5.54,3.51-11.11,7-16.62,10.53a66.42,66.42,0,0,0-13.73,11.51c-.5.57,1.07,2.45,1.41,2.06Z"/><path class="cls-1" d="M218.69,140.61c9.49-13.62,27.07-17.49,40.91-25a53.25,53.25,0,0,0,11.5-8.12L269.45,106c-.36,6.14-3.68,11.47-7,16.44s-6.58,10.22-9.65,15.49c-6,10.41-12.53,21.09-23.31,27.19-5.62,3.17-12.06,4.8-18.49,3.62-1.32-.24-.59,2.09.45,2.28,11.81,2.17,23.18-4.58,30.77-13.16a99.65,99.65,0,0,0,11-16c3.28-5.59,6.53-11.16,10.16-16.54,3.79-5.59,7.61-11.49,8-18.43,0-.57-1-2.15-1.65-1.48C257.52,117,240,119.85,226.44,129.52a38.88,38.88,0,0,0-9.42,9.3c-.62.89,1,2.8,1.67,1.79Z"/><path class="cls-1" d="M222,119.18a29.59,29.59,0,0,0-3.15-8.46A58.31,58.31,0,0,0,214.1,103c-1.82-2.41-4-4.53-5.72-7a33.38,33.38,0,0,1-4.3-8.79c-.28-.87-1.86-.82-2.29-.11a77.34,77.34,0,0,0-8.21,19.35c-.37,1.31,2.1,1.58,2.43.39A75.3,75.3,0,0,1,204,88l-2.29-.11A35.64,35.64,0,0,0,205.54,96a75.59,75.59,0,0,0,5.66,7.1,51.09,51.09,0,0,1,4.89,7.5,29.34,29.34,0,0,1,3.46,8.72c.23,1.26,2.73,1.11,2.49-.12Z"/><path class="cls-1" d="M218.64,138.29A107.44,107.44,0,0,0,205,116.79a125.41,125.41,0,0,0-8.6-9.55,56.79,56.79,0,0,1-8.55-10.38c-2.74-4.57-4.56-9.61-6.37-14.61-.24-.64-2.31-.44-2.5.18a83,83,0,0,0-2,40.22A65.6,65.6,0,0,0,183,140.29a85.14,85.14,0,0,0,10.72,15.57,120.25,120.25,0,0,0,15,14.66,2.1,2.1,0,0,0,1.56.19c.12,0,1.18-.3.83-.59-9.53-7.85-18.25-17.1-24.43-27.85-6.5-11.3-9.09-24.56-8.84-37.52a83,83,0,0,1,3.58-22.5l-2.5.18a102.48,102.48,0,0,0,5.18,12.5,47.38,47.38,0,0,0,8,10.81c3,3.14,6.08,6.18,8.87,9.52a120.8,120.8,0,0,1,7.81,10.45,94.86,94.86,0,0,1,7.32,12.76c.32.69,2.66.18,2.49-.18Z"/><path class="cls-1" d="M268.55,108.61a234.81,234.81,0,0,1-21.1,20.87A87.9,87.9,0,0,1,235,138.31a90.67,90.67,0,0,0-10.66,7.48A85.35,85.35,0,0,0,213.67,156c-.57.66.82.72,1.18.31a85.48,85.48,0,0,1,20.29-17A94.45,94.45,0,0,0,247.21,131c3.79-3.17,7.42-6.53,11-10q6-5.87,11.57-12.09c.59-.65-.81-.72-1.18-.31Z"/><path class="cls-1" d="M248.37,98.9c-7.47,13.35-21.84,21-30.31,33.62-.13.19,1.18.13,1.43-.24C228,119.69,242.33,112,249.8,98.66c.13-.23-1.22-.14-1.43.24Z"/><path class="cls-1" d="M202,90.61a60.12,60.12,0,0,1,1.13,9.18,37.39,37.39,0,0,0,2,8.72c1.86,5.46,4.4,10.91,4.24,16.79,0,.22,1.43,0,1.45-.39.16-5.88-2.38-11.33-4.25-16.78a38.28,38.28,0,0,1-2-8.5,63.15,63.15,0,0,0-1.15-9.41c-.09-.32-1.54.06-1.45.39Z"/><path class="cls-1" d="M179.47,85.3a95.42,95.42,0,0,0,9,30.45A73.61,73.61,0,0,0,196.71,129c3.54,4.5,7.21,8.78,9.73,14a76,76,0,0,1,5.94,17.82c.13.58,1.58.22,1.45-.39a78.45,78.45,0,0,0-5.05-15.9A60.87,60.87,0,0,0,200,130.86a82.23,82.23,0,0,1-9.2-13.65,90.67,90.67,0,0,1-6.06-14.71,97,97,0,0,1-3.83-17.59c-.07-.57-1.53-.23-1.45.39Z"/><path class="cls-1" d="M246.76,203c-5,8.35-14,11.88-22.61,15.37a96.72,96.72,0,0,0-22.92,13.16,83.93,83.93,0,0,0-11.16,10.41c-.28.31,1.08.14,1.31-.12a87.84,87.84,0,0,1,21.36-17.31,98,98,0,0,1,12.67-6.15c4.29-1.74,8.7-3.36,12.65-5.81a30.15,30.15,0,0,0,10.12-9.81c.09-.15-1.21-.09-1.42.26Z"/><path class="cls-1" d="M227.33,191.46c-7.23,11.3-20.54,17-27.31,28.69-.09.15,1.22.09,1.42-.26,6.77-11.66,20.09-17.39,27.32-28.69.08-.13-1.2-.09-1.43.26Z"/><path class="cls-1" d="M172.72,169.59c-1.14,16.26,8.34,30.65,11.88,46a42.94,42.94,0,0,1,1.12,13.69c0,.47,1.41.19,1.44-.22,1.5-16.24-7.94-30.73-11.65-46a45.26,45.26,0,0,1-1.36-13.71c0-.48-1.41-.19-1.43.22Z"/><path class="cls-1" d="M151.65,177c1.47,10.71,3.1,21.59,7.75,31.46,2.47,5.26,5.91,9.89,9.19,14.65A128.35,128.35,0,0,1,185,256.21c.17.5,1.61.09,1.45-.38A129.94,129.94,0,0,0,171.61,225c-3.33-5.07-7.15-9.83-9.92-15.24a67.83,67.83,0,0,1-5.42-15,180.4,180.4,0,0,1-3.17-18.18c-.06-.48-1.52-.15-1.45.39Z"/><path class="cls-1" d="M205.08,485.53a80,80,0,0,0-10.34,2.77c-.13.05-.59.21-.43.41s.78,0,.93-.09a75.32,75.32,0,0,1,9.56-2.57c.19,0,.81-.15.85-.39s-.46-.16-.57-.13Z"/><path class="cls-1" d="M181.33,507.37c6.24-1.75,12.49-3.46,18.76-5.07.89-.22.64-1.17-.25-.94-6.28,1.6-12.52,3.31-18.76,5.06-.89.25-.64,1.21.25.95Z"/><path class="cls-1" d="M169.39,527.6q13.83-3.29,27.49-7.22c.83-.23.74-.66-.11-.41q-13.67,3.93-27.5,7.21c-.84.2-.74.62.12.42Z"/><path class="cls-1" d="M161,545.43c10.25-2.22,20.6-4.14,30.67-7.08.84-.24.72-.76-.14-.51-10,2.9-20.16,4.8-30.28,7-.59.13-1.26.82-.25.6Z"/><path class="cls-1" d="M167.79,485.82c3.2-1.56,6.72-2.45,10.06-3.68.24-.08.56-.38.37-.65s-.72-.14-1-.05c-3.34,1.22-6.86,2.11-10.06,3.68-.23.11-.57.37-.37.65s.73.17,1,.05Z"/><path class="cls-1" d="M159.38,500.28,170.15,495c.23-.11.57-.38.36-.66s-.73-.18-1-.06l-10.76,5.26c-.23.11-.57.38-.37.66s.73.18,1,.06Z"/><path class="cls-1" d="M155,511.36a23.85,23.85,0,0,0,2.51-1.3c.68-.41,1.35-.84,2-1.24.19-.11.44-.39.14-.52a1.26,1.26,0,0,0-1,.14c-.68.39-1.33.81-2,1.22l-1,.55-.6.3h0l-.07,0-.17.09-.42.19c-.16.07-.61.31-.39.54s.73.1.95,0Z"/><path class="cls-1" d="M188.44,406c3.16-.35,6.3-.81,9.47-1.1.29,0,.76-.21.8-.56s-.39-.44-.65-.42c-3.17.29-6.31.75-9.46,1.11-.3,0-.77.2-.81.55s.39.45.65.42Z"/><path class="cls-1" d="M168.65,418.82q10.62-1.23,21.28-1.94c.4,0,1.58-.65.63-.59q-10.67.69-21.28,1.93c-.39,0-1.57.71-.63.6Z"/><path class="cls-1" d="M154.68,433.32c8.65-.9,17.35-1.26,26-2.16.7-.07,1.2-.9.2-.8-8.66.91-17.36,1.27-26,2.17-.7.07-1.2.9-.2.79Z"/><path class="cls-1" d="M169.06,444.59c-6.46.89-13,1.38-19.5,1.84-.72.05-1.19.9-.19.83,6.51-.46,13-.95,19.5-1.85.71-.09,1.19-1,.19-.82Z"/><path class="cls-1" d="M179.06,397.38l9.36-1.31c.27,0,.77-.18.82-.51s-.42-.36-.63-.33l-9.36,1.32c-.27,0-.77.18-.82.5s.42.36.63.33Z"/><path class="cls-1" d="M188.58,322.33c3.52-.28,7-.43,10.57-.75.27,0,.82-.1,1-.35s-.13-.29-.35-.26c-3.52.32-7.05.47-10.57.75-.27,0-.82.1-1,.35s.13.28.35.26Z"/><path class="cls-1" d="M175.36,337c5.73-.3,11.45-.83,17.18-1,.78,0,1.15-1,.16-.94-5.74.2-11.45.72-17.18,1-.78,0-1.16,1-.16.95Z"/><path class="cls-1" d="M161.84,350.48c7.63-.41,15.24-1.13,22.86-1.66.42,0,1.57-.7.61-.64-7.62.53-15.23,1.25-22.85,1.66-.43,0-1.57.69-.62.64Z"/><path class="cls-1" d="M187.85,302.67c-2.34.64-4.7,1.25-7,1.88-.31.09-.68.37-.59.73s.57.42.87.34l7-1.88c.3-.08.68-.37.58-.73s-.57-.42-.87-.34Z"/><path class="cls-1" d="M171,316.92c5.11-1.75,10.22-3.55,15.4-5.1,1-.31-.4-2.34-1.3-2.07-5.18,1.55-10.29,3.35-15.4,5.11-1,.35.41,2.37,1.3,2.06Z"/><path class="cls-1" d="M230,224.24,214.65,223c-.64-.06-1.51.87-.53.95l15.32,1.26c.65.05,1.51-.88.53-1Z"/><path class="cls-1" d="M221.94,234.29,199.56,233c-.64,0-1.51.9-.53,1l22.38,1.25c.65,0,1.51-.9.53-1Z"/><path class="cls-1" d="M210.29,247,190,245.89c-.3,0-1.64.53-.95.56l20.25,1.11c.3,0,1.65-.52.95-.56Z"/><path class="cls-1" d="M257.51,130.3c-4,.26-7.87.94-11.82,1.21-.28,0-.78.2-.82.53s.4.39.65.37c3.95-.27,7.86-.95,11.81-1.21.28,0,.78-.2.82-.52s-.4-.39-.64-.38Z"/><path class="cls-1" d="M239.51,157.44c-8.56,1.19-17.12,2.44-25.71,3.42-.8.1-1.13,1.16-.14,1,8.59-1,17.15-2.23,25.72-3.43.79-.11,1.11-1.18.13-1Z"/><path class="cls-1" d="M250.44,142.61q-13,2-26,3.5c-.71.08-1.2.93-.2.82q13-1.49,26-3.5c.7-.11,1.19-1,.19-.82Z"/><path class="cls-1" d="M245.48,112.19c-4.15,1.38-8.14,3.23-12.3,4.6-.19.07-.55.25-.41.49s.79,0,.95,0c4.15-1.38,8.14-3.22,12.3-4.6.19-.06.55-.25.41-.49s-.79,0-1,0Z"/><path class="cls-1" d="M222.85,127.88c7-2.6,13.83-5.54,20.71-8.38.94-.38.08-.78-.55-.52-6.89,2.84-13.74,5.78-20.72,8.38-.95.35-.07.75.56.52Z"/><path class="cls-1" d="M224.8,76.4c7.53-7.18,15.63-14.65,20.35-24.09a41.55,41.55,0,0,0,4.29-16.76c.24-5.73-.51-11.55.56-17.23a36.39,36.39,0,0,1,3.13-8.45c1.24-2.68,2.28-5.41,2.08-8.42-.05-.64-1.3-1.85-2-1.32-11.64,9.72-22.53,21-28.28,35.27a53.51,53.51,0,0,0-3.37,12.36l.64-.23c-1.24-.47-1.62-3.62-2-4.7a51,51,0,0,0-2-5.5,36.18,36.18,0,0,0-6.11-9.79c-5.61-6.25-13.75-8.74-20.37-13.62a44.29,44.29,0,0,1-9.91-10.17c-.28-.39-.78-.94-1.31-1s-.64.21-.47.67c4.22,11.49,3.82,24.16,9.19,35.3,4.7,9.75,12.08,18,20,25.27,4.55,4.22,9.35,8.15,14.21,12,.29.22,1,.77,1.35.37s-.25-1.09-.52-1.3c-8.42-6.64-16.72-13.6-23.69-21.79a67.63,67.63,0,0,1-8.94-13.11,59.92,59.92,0,0,1-5.13-16.33C185.27,17.18,184.36,10.41,182,4l-1.78-.29a49.88,49.88,0,0,0,8.67,9.51A63.41,63.41,0,0,0,200,20.39c3.93,2.1,7.88,4.25,10.9,7.6a34.52,34.52,0,0,1,6.34,10.87c.81,2.12,1.32,4.33,2.09,6.46a6.3,6.3,0,0,0,3.68,4c.21.08.6,0,.65-.24,2.2-15.12,11.11-28.07,21.79-38.59,3.1-3,6.36-5.94,9.7-8.73L253.18.48c.36,5.38-3.57,9.91-4.85,14.94-1.39,5.44-.83,11.13-.87,16.68a42.76,42.76,0,0,1-3.32,16.67,51.89,51.89,0,0,1-8.86,13.38c-3.85,4.45-8.09,8.53-12.34,12.58-.6.58,1.21,2.29,1.86,1.67Z"/><path class="cls-1" d="M252.41,4.92C237.22,16.4,236.59,37.1,229.46,53.26a45.62,45.62,0,0,1-3.76,7c-1.19,1.76-2.77,3.95-4.71,4.94-.85.44.49.38.84.21,3.24-1.66,5.47-5.41,7.14-8.5a75.43,75.43,0,0,0,5.45-13.63c2.78-9,4.83-18.22,9.33-26.53A36.1,36.1,0,0,1,253.52,5c.58-.43-.85-.24-1.11,0Z"/><path class="cls-1" d="M182.59,7.47,199.81,36c5.13,8.52,10.24,17.08,16.84,24.57,3.65,4.14,8,9.12,6.5,15.09-.08.33,1.34.13,1.43-.25,1.19-4.74-1.3-9.11-4.23-12.65-3.31-4-6.71-7.84-9.67-12.13-6.07-8.82-11.35-18.22-16.88-27.38L184,7.08c-.22-.37-1.58.17-1.45.39Z"/><path class="cls-1" d="M247,23.29l-9.25,6.51c-.23.16-.19.29.08.32a1.77,1.77,0,0,0,1-.27l9.25-6.51c.23-.16.19-.29-.08-.32a1.79,1.79,0,0,0-1,.27Z"/><path class="cls-1" d="M247.51,36.1c-2.15,2-4.84,3.45-7.29,5.06s-4.94,3.27-7.43,4.88c-.23.16-.39.42-.12.61a1.15,1.15,0,0,0,1-.13c2.56-1.66,5.1-3.35,7.65-5a53.42,53.42,0,0,0,7.33-5.12c.24-.22.13-.45-.14-.55a1.18,1.18,0,0,0-1,.28Z"/><path class="cls-1" d="M242.47,51.89A167.46,167.46,0,0,1,222.08,64.4c-.88.46-.08,1,.6.68A171.27,171.27,0,0,0,243.39,52.4c.8-.57-.42-.87-.92-.51Z"/><path class="cls-1" d="M225.31,203.47c-3.37.24-6.78.5-10.11,1.06-.32.05-.76.21-.8.6s.38.54.68.49c3.33-.55,6.74-.81,10.11-1.05.32,0,.76-.23.79-.6s-.37-.52-.67-.5Z"/><path class="cls-1" d="M222.23,210.94c-5.06.26-10.1.91-15.17,1.28-.26,0-.84.09-1,.38s.09.4.38.38c5.06-.37,10.1-1,15.17-1.29.26,0,.85-.09,1-.38s-.09-.39-.38-.37Z"/><path class="cls-1" d="M115.86,481.31c.41,6.3.86,12.6,1.19,18.9,0,.72,1.49.47,1.46-.13-.33-6.39-.78-12.77-1.2-19.15,0-.62-1.5-.28-1.45.38Z"/><path class="cls-1" d="M128.4,497.5c1.15,7.93,2.07,15.88,3.2,23.81.08.58,1.54.23,1.45-.39-1.14-7.93-2.05-15.88-3.2-23.8-.08-.58-1.54-.24-1.45.38Z"/><path class="cls-1" d="M149.23,536.48c-1.79-8.26-3.66-16.52-5.17-24.84-.07-.39-1.53-.05-1.45.39,1.51,8.32,3.38,16.58,5.18,24.84.08.4,1.54,0,1.44-.39Z"/><path class="cls-1" d="M136,475.5a132,132,0,0,0-1.06,15.25c0,.43,1.44.16,1.44-.39a135.42,135.42,0,0,1,1.06-15.05c.07-.55-1.39-.28-1.44.19Z"/><path class="cls-1" d="M143.69,484.24c0,9.4,0,18.8,0,28.2,0,.2,1.45,0,1.45-.39,0-9.4,0-18.8,0-28.2,0-.2-1.45,0-1.45.39Z"/><path class="cls-1" d="M116.06,395.27l4.18,9.54c1.66,3.78,3.47,7.5,5.08,11.31.27.65,1.71.24,1.45-.39-1.61-3.81-3.42-7.53-5.08-11.31-1.39-3.18-2.8-6.35-4.18-9.54-.29-.64-1.72-.23-1.45.39Z"/><path class="cls-1" d="M129.56,405.21c2.34,6.12,3.69,12.55,5.27,18.89.11.43,1.56.06,1.45-.39-1.58-6.34-2.93-12.77-5.27-18.89-.17-.44-1.6,0-1.45.39Z"/><path class="cls-1" d="M140,413.27c2.43,9.08,4.82,18.18,7.33,27.23.17.61,1.62.23,1.45-.38-2.51-9.06-4.9-18.16-7.33-27.24-.16-.61-1.61-.22-1.45.39Z"/><path class="cls-1" d="M128.3,381c-.29,4.64-.28,9.29-.42,13.94,0,.19,1.44,0,1.45-.39.14-4.65.13-9.3.42-13.94,0-.18-1.43,0-1.45.39Z"/><path class="cls-1" d="M134.73,391.23c-.17,4.75-.71,9.49-.72,14.24,0,.41,1.45.15,1.45-.39,0-4.69.54-9.36.71-14.05,0-.55-1.43-.25-1.44.2Z"/><path class="cls-1" d="M142.84,400.88c-.14,4.76,0,9.53,0,14.29,0,.72,1.47.47,1.46-.13,0-4.76-.14-9.53,0-14.29,0-.72-1.44-.48-1.46.13Z"/><path class="cls-1" d="M139.21,301a127.51,127.51,0,0,0-.88,15.5c0,.23,1.45,0,1.45-.39a127.34,127.34,0,0,1,.88-15.49c0-.18-1.4-.05-1.45.38Z"/><path class="cls-1" d="M147.38,310.23a69,69,0,0,0-2.09,15.87c0,.22,1.44,0,1.45-.39A68.51,68.51,0,0,1,148.81,310c.08-.3-1.33-.11-1.43.26Z"/><path class="cls-1" d="M156,319.89a129.17,129.17,0,0,1-3,15.1c-.09.35,1.34.15,1.44-.24a131.23,131.23,0,0,0,3-15.1c.06-.4-1.38-.13-1.43.24Z"/><path class="cls-1" d="M149,288.37c-.42,4.15-.78,8.31-.92,12.47,0,.68,1.44.43,1.46-.14.14-4.17.5-8.33.92-12.48.07-.66-1.4-.42-1.46.15Z"/><path class="cls-1" d="M156,296.6q-.5,8.1-1,16.21c0,.65,1.42.39,1.45-.15l1-16.22c0-.65-1.43-.38-1.46.16Z"/><path class="cls-1" d="M163.57,306c-1,6.88-1.41,13.83-2.52,20.69-.09.57,1.37.32,1.45-.18,1.11-6.86,1.54-13.81,2.52-20.69.08-.57-1.38-.32-1.45.18Z"/><path class="cls-1" d="M161.17,195c.58,7,1.31,14,2.46,20.9.05.33,1.51,0,1.45-.38-1.15-6.93-1.88-13.92-2.46-20.91,0-.3-1.49,0-1.45.39Z"/><path class="cls-1" d="M173.41,209.59c0,7.25.74,14.49.46,21.74,0,.56,1.43.25,1.45-.2.28-7.31-.5-14.61-.46-21.93,0-.4-1.45-.15-1.45.39Z"/><path class="cls-1" d="M182.41,222.81c.09,10.62.89,21.32,2,31.88.07.6,1.52.26,1.45-.39a315.61,315.61,0,0,1-2-31.63c0-.71-1.46-.45-1.46.14Z"/><path class="cls-1" d="M179.45,181c.06,5.55-.72,11.08-.61,16.63,0,.78,1.48.59,1.47-.1-.1-5.55.67-11.08.61-16.63,0-.78-1.48-.59-1.47.1Z"/><path class="cls-1" d="M187,192.66c-.9,7.43-1.79,14.85-2.46,22.31,0,.43,1.4.14,1.43-.24.68-7.45,1.57-14.88,2.46-22.31.05-.42-1.39-.15-1.43.24Z"/><path class="cls-1" d="M193.55,205.76c-1.85,10.09-3.34,20.27-4.57,30.46-.08.61,1.39.35,1.45-.17,1.23-10.19,2.72-20.37,4.57-30.46.11-.59-1.36-.36-1.45.17Z"/><path class="cls-1" d="M186.25,97.85q.57,8.67,1.86,17.25c0,.35,1.51,0,1.45-.39q-1.29-8.58-1.86-17.25c0-.32-1.48-.06-1.45.39Z"/><path class="cls-1" d="M197,110.52l1.22,20.18c0,.38,1.48.1,1.45-.38l-1.22-20.19c0-.37-1.48-.1-1.45.39Z"/><path class="cls-1" d="M207,122.55c1,11.55,2.5,23.11,4.5,34.53.12.69,1.58.32,1.45-.39-2-11.41-3.51-23-4.5-34.53-.06-.68-1.52-.33-1.45.39Z"/><path class="cls-1" d="M209.13,101.06c-1.16,3.36-2.59,6.63-3.09,10.18,0,.13,1.39,0,1.45-.39.49-3.5,1.92-6.74,3.07-10,.08-.24-.48-.14-.58-.12s-.77.14-.85.38Z"/><path class="cls-1" d="M215.2,108.09c-2.21,5.65-3.34,11.67-5.56,17.31-.29.74,1.16.66,1.37.12,2.22-5.64,3.35-11.67,5.56-17.31.29-.74-1.16-.66-1.37-.12Z"/><path class="cls-1" d="M178.8,280.72q-14-15-27.05-31c-4.22-5.2-8.34-10.47-12.29-15.87a129.34,129.34,0,0,1-10.92-17.07c-6.34-12.31-8.11-26.29-12.67-39.26a191.73,191.73,0,0,0-16.61-34.86A281.93,281.93,0,0,0,73.5,107a1,1,0,0,0-1.5-.1,1.36,1.36,0,0,0,.23,1.67c16.74,20,31.51,42,40.64,66.57a187.74,187.74,0,0,1,5.84,19.1c1.75,6.82,3.5,13.64,6.43,20.06,5.54,12.1,14,22.77,22.23,33.13,9.57,12,19.68,23.63,30.16,34.87,1.12,1.2,2.26-.51,1.27-1.57Z"/><path class="cls-1" d="M133.16,226.38c-5.86-5-13.34-7.29-20.62-9.42a116.52,116.52,0,0,1-23.26-9.28,105.78,105.78,0,0,1-12.45-7.94c-.62-.46-2-.57-1.7.59,2.44,11.45,9.74,21.1,18.27,28.83,4.62,4.18,9.64,8.09,15.45,10.46,6,2.44,12.45,3.28,18.82,3.86,5.81.52,11.62,1,17.43,1.42,1.54.12.72-2.05-.46-2.15l-14.11-1.14c-6.14-.5-12.36-1-18.27-2.84s-11-5.25-15.67-9.27a71.83,71.83,0,0,1-11.38-12,44.41,44.41,0,0,1-7.9-17l-1.7.59a108.05,108.05,0,0,0,33.72,17c3.68,1.12,7.4,2.11,11,3.4a35.64,35.64,0,0,1,11.58,6.29c1.18,1,2.4-.36,1.22-1.38Z"/><path class="cls-1" d="M108.12,158c1.29-8,4.91-15.59,9.5-22.2,4.82-6.93,10.88-12.89,15.61-19.9l-2.06.7c0,18-4.43,35.67-10.26,52.59-1.64,4.78-3.41,9.5-5.24,14.2-.22.56.53.51.83.43a2,2,0,0,0,1.29-1.14c6.57-16.85,12.35-34.21,14.6-52.22a118.77,118.77,0,0,0,1-15c0-1-1.88.45-2.05.7-4.8,7.12-11,13.16-15.85,20.24-4.54,6.64-8.15,14.29-9.44,22.28-.18,1.09,2,0,2.12-.72Z"/><path class="cls-1" d="M111,167.31c-5.38-4.46-12.9-4.8-19.58-4.64-4.38.1-8.72.28-13-.66A44,44,0,0,1,67,157.59a128.81,128.81,0,0,1-11.73-7.43c-.12-.08-1.52-1-1.49-.52.27,5,4.2,9.1,7.13,12.83a91.28,91.28,0,0,0,9.93,11,42.68,42.68,0,0,0,12.4,8.07A116.1,116.1,0,0,0,99,186.34a117.5,117.5,0,0,0,19.41,3.46c.52,0,0-.46-.16-.59a3.13,3.13,0,0,0-1.5-.82c-10.41-.82-20.85-3.45-30.77-6.62A35.61,35.61,0,0,1,73.2,174.7a75.82,75.82,0,0,1-9.58-10.36c-1.63-2-3.27-4.09-4.78-6.21a14.07,14.07,0,0,1-3-7.33l-1.5-.52c6.33,4.35,12.77,8.71,20,11.44a37.4,37.4,0,0,0,11.09,2.42c4.23.22,8.47-.23,12.71,0,3.69.17,8.54.48,11.51,2.94.28.23,1.12.95,1.5.83s.15-.33-.16-.58Z"/><path class="cls-1" d="M86.41,122.77c-1.06-8.08,1.35-16.24,4.26-23.7s6.86-14.84,9.43-22.61a48.11,48.11,0,0,0,2.62-13.68l-2.31.59c3,11.12,5.24,22.54,5.55,34.09a107.12,107.12,0,0,1-3.83,29.68,75.82,75.82,0,0,1-5.2,14.73c-.68,1.37,1.65,1.17,2.15.17,4.15-8.32,6.32-17.83,7.87-26.95a104.2,104.2,0,0,0,0-33.16,174.1,174.1,0,0,0-4.2-19.4c-.31-1.14-2.28-.38-2.31.59-.25,8.6-3.49,16.61-7,24.36-3.31,7.43-6.75,14.85-8.54,22.83a38.36,38.36,0,0,0-.83,13.29c.17,1.25,2.46.29,2.32-.83Z"/><path class="cls-1" d="M85.19,121.92c-5.58-4.35-12.25-6.67-19-8.48-7-1.86-14.16-3.34-21-5.85a39.88,39.88,0,0,1-10.89-5.89c-.44-.35-2-.66-1.72.35a34.91,34.91,0,0,0,7.53,13.29,123,123,0,0,0,11.56,11.72,56.82,56.82,0,0,0,27.44,13,74.86,74.86,0,0,0,17.23,1.22c.56,0,.68-.49.44-.91a1.86,1.86,0,0,0-1.6-.76A66.46,66.46,0,0,1,66.88,135a47.57,47.57,0,0,1-12.47-7.56,123.44,123.44,0,0,1-11.06-10.88c-3.75-4.13-7-8.75-8.5-14.21l-1.73.35c11.54,9,27,9.72,40.3,14.52A37.73,37.73,0,0,1,84,122.89c1,.78,2.5.06,1.19-1Z"/><path class="cls-1" d="M74,107.5c1.69-12.27,1.87-25.14-1.17-37.21-2.63-10.41-9-19-14.23-28.11-2.9-5-5.39-10.35-6.42-16.11-.25-1.38-2.18-.76-2.4.31a150.24,150.24,0,0,0-1,55.08l2.15-1.09a80.7,80.7,0,0,0-8.7-7.94c-3.14-2.36-6.55-4.34-9.73-6.63S26.11,60.71,23.06,58l-9.79-8.55L2.17,39.78c-.76-.67-2.37,0-2.15,1.09C1.38,47.79,2.9,54.66,6,61a64.4,64.4,0,0,0,10.41,15.1c9.07,9.94,20.63,17.15,32.66,23,7.28,3.52,14.76,6.56,22.24,9.6,1.21.5,2.83-1.35,1.44-1.92C48.82,97,22.27,86,9.31,62,5.63,55.18,3.9,47.82,2.42,40.28L.27,41.37,19.84,58.48c3,2.65,6.05,5.36,9.25,7.82S35.6,70.73,38.83,73A73.36,73.36,0,0,1,49,82a1.34,1.34,0,0,0,2.15-1.1,148.68,148.68,0,0,1,1-54.51l-2.4.31C51.58,36.82,57.64,45.31,62.84,54a66.77,66.77,0,0,1,6.8,14.15,73.89,73.89,0,0,1,3,18.27,113.15,113.15,0,0,1-1,21.13c-.21,1.5,2.22,1.29,2.4,0Z"/><path class="cls-1" d="M49.91,32c1.89,8.25,3.61,16.54,5.37,24.82,1.67,7.79,3.61,15.54,5,23.39a98.15,98.15,0,0,1,1.58,12.9c0,.51,1.47.21,1.44-.38-.32-7.54-1.85-15-3.52-22.35C58,62.19,56.21,54,54.46,45.75c-1-4.72-2-9.43-3.1-14.13-.13-.54-1.58-.16-1.45.39Z"/><path class="cls-1" d="M2.07,43.87l5.4,9.56c1.59,2.8,3.14,5.64,5,8.28,3.61,5.11,8.4,9.29,13.35,13.05a96.75,96.75,0,0,0,15.83,9.75C44.37,85.84,47.16,87,50,88.12s5.89,1.82,8.69,3C62,92.63,64,95.37,66,98.29c2.12,3.13,4,6.4,6.16,9.52.3.44,1.7-.06,1.34-.59-1.91-2.79-3.63-5.7-5.49-8.52-1.57-2.38-3.16-4.94-5.44-6.69s-5.3-2.52-8.06-3.45a91.31,91.31,0,0,1-8.93-3.5,96.91,96.91,0,0,1-16.13-9.25A69.19,69.19,0,0,1,15.29,63.09a66,66,0,0,1-5.86-9.17q-3-5.31-6-10.64c-.26-.45-1.67,0-1.34.59Z"/><path class="cls-1" d="M76.89,201.37C85,218.83,105,224.58,122,229.71c5.35,1.63,10.72,3.29,15.9,5.4.64.26,1.69-.65.83-1-17.05-7-36.89-9-51.27-21.4A35.42,35.42,0,0,1,78.34,201c-.3-.65-1.74-.24-1.45.38Z"/><path class="cls-1" d="M55.55,153.28a62.05,62.05,0,0,0,31.36,19.27,93.79,93.79,0,0,0,12.45,2c5.14.6,10.39,1.32,15,3.85.37.2,1.55-.39,1.37-.49-7.65-4.22-16.76-3.59-25.08-5.33a61.51,61.51,0,0,1-33.72-19.79c-.23-.27-1.59.23-1.36.5Z"/><path class="cls-1" d="M35.19,105.55c3.8,7,12,11.22,19.13,14,7.65,2.94,15.7,4.68,23.5,7.19a72.44,72.44,0,0,1,12.59,5.21c.39.21,1.73-.36,1.16-.67C77.63,123.64,61,123,47.21,115c-4.1-2.39-8.27-5.55-10.57-9.79-.26-.46-1.65,0-1.45.39Z"/><path class="cls-1" d="M100,70.35c1.65,8.63.45,17.41-1.48,25.89-1.77,7.76-4.47,15.25-6.41,23a54.72,54.72,0,0,0-1.86,12.59c0,.2,1.44,0,1.45-.39.09-8,2.69-15.8,5-23.41A124.87,124.87,0,0,0,102,84.36a50,50,0,0,0-.49-14.4c0-.28-1.51.05-1.45.39Z"/><path class="cls-1" d="M129.57,120c-2.79,9-7.67,17.17-11.47,25.79-3.36,7.61-6.28,16-6.55,24.34,0,.75,1.45.53,1.47-.11.27-8.43,3.21-16.79,6.62-24.43,3.78-8.48,8.56-16.51,11.31-25.43.25-.79-1.19-.76-1.38-.16Z"/><path class="cls-1" d="M60.35,48.84A104.08,104.08,0,0,0,55.77,59c-.09.25,1.29.11,1.43-.26a105.09,105.09,0,0,1,4.57-10.16c.13-.23-.5-.15-.58-.14-.24,0-.71.15-.84.4Z"/><path class="cls-1" d="M68,62.47c-2.63,5-5,10.24-8,15.13-.19.32.18.61.46.65a.92.92,0,0,0,.94-.45c2.94-4.89,5.32-10.08,7.95-15.13.39-.75-1.08-.81-1.4-.2Z"/><path class="cls-1" d="M72.35,78.66c-2.64,5.27-4.56,11-7.87,16-.52.76.84,1,1.22.44,3.37-5,5.35-10.84,8-16.21.37-.74-1.1-.77-1.39-.18Z"/><path class="cls-1" d="M106,89.08l-7.48,8.68a.35.35,0,0,0,.16.61,1.09,1.09,0,0,0,1-.28l7.49-8.68a.35.35,0,0,0-.16-.61,1.12,1.12,0,0,0-1,.28Z"/><path class="cls-1" d="M106.21,105.48c-4.31,3.24-8.22,7-12.53,10.23-.78.59.42.94.93.55,4.31-3.24,8.22-7,12.53-10.23.78-.59-.41-.94-.93-.55Z"/><path class="cls-1" d="M103.73,122.67c-4.07,2.86-8.12,5.78-12.38,8.33-.22.13-.42.34-.15.51s.8,0,1-.15c4.36-2.61,8.5-5.6,12.66-8.51.26-.19.13-.38-.12-.45a1.42,1.42,0,0,0-1,.27Z"/><path class="cls-1" d="M128.6,138.35l-9.38,6.54c-.24.17-.15.35.11.4a1.57,1.57,0,0,0,1-.27l9.37-6.55c.24-.17.15-.35-.11-.4a1.49,1.49,0,0,0-1,.28Z"/><path class="cls-1" d="M126.62,150.81q-6.66,4.58-13.17,9.36c-.79.58.42.94.94.56q6.49-4.8,13.16-9.36c.25-.17.37-.46.1-.67a1,1,0,0,0-1,.11Z"/><path class="cls-1" d="M121.61,166.91q-4.23,2.59-8.35,5.38c-.21.14-.42.41-.13.58a1.11,1.11,0,0,0,1-.13q4.11-2.78,8.36-5.38c.22-.13.4-.41.12-.58a1.18,1.18,0,0,0-1,.13Z"/><path class="cls-1" d="M90.28,210.13q5.16,6.18,10.6,12.13c.28.31,1.64-.21,1.36-.52q-5.43-5.94-10.61-12.13c-.25-.31-1.63.19-1.35.52Z"/><path class="cls-1" d="M105.56,216.36a121.33,121.33,0,0,0,8.62,10.69c.39.43,1.78-.13,1.34-.61a121.3,121.3,0,0,1-8.63-10.68c-.33-.46-1.73.06-1.33.6Z"/><path class="cls-1" d="M118.92,220.41c3,3.83,6,7.66,9.32,11.25.26.29,1.62-.23,1.36-.51-3.3-3.59-6.32-7.42-9.32-11.25-.23-.29-1.62.19-1.36.51Z"/><path class="cls-1" d="M67.48,158.68l14,12.14c.27.24,1.54-.32,1.37-.48l-14-12.13c-.28-.24-1.55.32-1.37.47Z"/><path class="cls-1" d="M83.18,163.43A165.3,165.3,0,0,0,96.35,174c.4.29,1.73-.28,1.35-.56a165.18,165.18,0,0,1-13.17-10.58c-.36-.34-1.72.22-1.35.55Z"/><path class="cls-1" d="M94.86,163.46a89.81,89.81,0,0,1,8,6.21c2.43,2.21,4.74,4.53,7.09,6.83.25.24,1.56-.3,1.37-.48-2.35-2.3-4.67-4.62-7.09-6.83a89.81,89.81,0,0,0-8-6.21c-.31-.23-1.54.36-1.37.48Z"/><path class="cls-1" d="M43.16,108.48c2.19,2,4.4,4,6.56,6,1.89,1.79,3.75,3.61,5.67,5.37.29.26,1.6-.29,1.36-.5-1.91-1.76-3.77-3.58-5.66-5.37-2.16-2-4.37-4-6.56-6-.29-.26-1.6.29-1.37.5Z"/><path class="cls-1" d="M58.79,112.92a25.35,25.35,0,0,0,2.3,2.45c.89.88,1.72,1.81,2.54,2.76,1.68,2,3.3,4,5.13,5.8.27.27,1.6-.26,1.36-.5-1.83-1.83-3.44-3.85-5.13-5.81-.8-.92-1.62-1.84-2.48-2.7a24.24,24.24,0,0,1-2.36-2.5c-.22-.28-1.6.2-1.36.5Z"/><path class="cls-1" d="M71.14,116.61c3.47,4,7,7.94,10.79,11.6.49.47,1.73-.27,1.11-.86-3.73-3.59-7.17-7.5-10.58-11.39-.45-.52-1.82.08-1.32.65Z"/><path class="cls-1" d="M378.16,239.78c-3,17.28-5.59,34.62-9.41,51.75a486.38,486.38,0,0,1-22,71.15c-20,51.1-46.93,99.1-67.52,149.94-21.08,52-34.91,107.15-48.31,161.56q-20.33,82.62-34.73,166.56Q181.79,925,173.41,1010.13q-1,10.68-2,21.37c0,.21,2.38.06,2.44-.57q7.62-85.14,21.29-169.58t33.4-167.62q9.81-41.4,21.09-82.43c7.7-28,15.72-56,25.85-83.19,19-51.24,45.79-99.12,67-149.43a526.66,526.66,0,0,0,25.1-72.82c4.69-18.08,8-36.43,11-54.84q1-5.91,2-11.8c0-.16-2.32-.1-2.43.56Z"/><path class="cls-1" d="M284.65,505.53a23.3,23.3,0,0,1,12.37-13c7.13-3.28,15.21-3.83,22.87-4.95a87.86,87.86,0,0,0,14.44-3.13l-2.19-1.11c-2.86,12.42-9.62,23.7-17.93,33.24a95.08,95.08,0,0,1-29.56,23.18A52.73,52.73,0,0,1,268,545c-.35,0,.6.66.64.69a2.73,2.73,0,0,0,1.48.47c11-1.33,21.27-7,30.05-13.45a98.25,98.25,0,0,0,26.16-28.63,69.38,69.38,0,0,0,8.08-19.69c.11-.49-1.82-1.23-2.19-1.11-8.4,2.74-17.25,3.32-25.91,4.83-6.56,1.13-13.22,3.09-18.21,7.72a22.5,22.5,0,0,0-5.7,8.64c-.16.43,2.13,1.4,2.26,1.06Z"/><path class="cls-1" d="M279.47,518.26c1.16-3.69,0-7.64-1.45-11.07a93,93,0,0,0-5.76-10.73c-2.54-4.29-5.63-8.23-8.2-12.49a63,63,0,0,1-5.63-13.26c-1.61-4.94-3.25-9.89-6.12-14.27-.3-.45-1.81-1-2.24-.48-8,9.41-10.08,22.1-8.81,34.09A69.06,69.06,0,0,0,246,508.82a146.87,146.87,0,0,0,9.26,17.88c4,6.81,7.92,13.65,10.65,21.06.26.72,2.65,1,2.4.37-4.73-12.83-13.14-23.82-18.74-36.23-5.1-11.28-7.6-24.32-5.5-36.64a38,38,0,0,1,8.28-18.39l-2.23-.48c5.14,7.83,6.15,17.49,10.66,25.64,2.26,4.09,5.08,7.82,7.63,11.73a102,102,0,0,1,6.35,11.13c1.87,3.84,3.67,8.43,2.33,12.71-.22.69,2.18,1.39,2.41.66Z"/><path class="cls-1" d="M310.94,448.69a38.24,38.24,0,0,1,8.85-6.18c3.74-1.86,7.56-3.57,11.34-5.34l23.08-10.84-2.37-.67a74.57,74.57,0,0,1-7.6,15.92,98.08,98.08,0,0,1-9.42,13.12,82.2,82.2,0,0,1-24.61,19.84,71.31,71.31,0,0,1-16.92,6.16c-.2,0,.74.38.79.4a3.49,3.49,0,0,0,1.52.29c21.16-4.79,38.59-19.31,50-37.43a77.07,77.07,0,0,0,8.68-17.66c.07-.2-2.11-.78-2.36-.67l-23.53,11.06c-3.82,1.79-7.73,3.48-11.48,5.42a39.39,39.39,0,0,0-8.37,5.95,7.46,7.46,0,0,0,1.17.47c.24.06,1,.37,1.25.16Z"/><path class="cls-1" d="M304.35,461.08c.93-8.93-2.42-17.54-6.2-25.45-4.08-8.57-8.65-16.79-11.71-25.81A128.51,128.51,0,0,1,282,392.9c-.07-.35-1.85-1.61-1.84-1.63a138.72,138.72,0,0,0-8.37,44.21,69.67,69.67,0,0,0,1.6,18.16,64.09,64.09,0,0,0,6.83,17,52.13,52.13,0,0,0,12.28,14.41c.23.19.5.51.45.17s-1-1-1.23-1.19c-4.47-3.59-7.89-8.47-10.61-13.49a64,64,0,0,1-6-15.88,70.35,70.35,0,0,1-1.44-18A138.18,138.18,0,0,1,282,393l-1.84-1.63a120.81,120.81,0,0,0,9.07,28.39c3.89,8.25,8.65,16.17,11.45,24.89a36.29,36.29,0,0,1,1.85,14.8c0,.27.65.77.83.94l1,.74Z"/><path class="cls-1" d="M337.64,390c3.77-5.57,9.71-8.62,15.82-10.95,6.28-2.39,12.81-4.21,18.77-7.36a33,33,0,0,0,8.78-6.5l-2.25.49a56.39,56.39,0,0,1-12.15,30.4c-7.39,9.18-17.62,15.23-27.77,20.9-5.89,3.29-11.74,7-18.32,8.73-.28.08-1.36.42-1.34.82s.73.25,1,.18c6.1-1.63,11.56-4.7,17-7.77s10.68-5.92,15.76-9.3c9.85-6.55,18.1-14.87,23.11-25.69a56.41,56.41,0,0,0,5-18.9c.07-.8-2,.26-2.26.49-4.65,5-11.08,7.51-17.36,9.74s-12.65,4.18-18.26,7.75a26.18,26.18,0,0,0-7.75,7.33c-.45.66,1.83.15,2.17-.36Z"/><path class="cls-1" d="M332.89,400.68c.81-7.1-2.55-13.67-6-19.65-1.86-3.23-3.84-6.41-5.52-9.74A71.41,71.41,0,0,1,317,359.63a97.73,97.73,0,0,1-3.11-14.34c-.13-1-1.8-.58-2.21-.1-8,9.18-10.5,21.54-10.33,33.41a168,168,0,0,0,1.83,20.16,91,91,0,0,0,3.93,16.87,62,62,0,0,0,8.62,17c.65.86,3,0,2.25-1-6.67-9-10.22-20.08-12-31-2-12.17-3.52-25.17-.73-37.33a39.57,39.57,0,0,1,8.42-17.3l-2.22-.1a90,90,0,0,0,6.74,24.3c3,6.65,7.49,12.5,10.3,19.24a22.86,22.86,0,0,1,2,11.4c-.14,1.22,2.33,1,2.45-.11Z"/><path class="cls-1" d="M358.35,337.47c4.63-5.93,11.78-8.7,18.53-11.48a83.63,83.63,0,0,0,21.24-12.22l-2.31.33c.59,4.38-.75,8.93-2.18,13a46.89,46.89,0,0,1-5,10.31c-4.57,6.93-11.19,11.9-19.47,13.31-5.15.87-10.41.7-15.61.54a3.31,3.31,0,0,0-1.73.36c-.3.22-.45.4.09.41,9.39.28,19.4.38,27.88-4.28,7.36-4,12.4-11.19,15.46-18.86,1.88-4.71,3.73-10.22,3-15.33-.06-.47-2.09.16-2.31.33a75.72,75.72,0,0,1-10.72,7.28A102.61,102.61,0,0,1,374,326.38c-6.61,2.72-13.52,5.64-18,11.43-.23.29.86.19.92.18.42-.06,1.18-.15,1.47-.52Z"/><path class="cls-1" d="M357,341.87c-1.58-7.58-7.48-13.19-12.23-18.94a41.62,41.62,0,0,1-6.32-10.17,79.94,79.94,0,0,1-4.19-13.53,13.83,13.83,0,0,0-1-2.77c-.29-.62-.36-1.26-1.1-1.52-1.51-.5-2.15,1.17-2.5,2.26-1.36,4.19-2.91,8.37-4,12.65a30.73,30.73,0,0,0-.36,13.46,46.38,46.38,0,0,0,4.59,12.36,100.15,100.15,0,0,0,7.79,12.55c3.06,4.18,6.84,7.79,9.72,12.11.75,1.13,3.1.29,2.3-.91-2.54-3.82-5.71-7.11-8.58-10.68a89.43,89.43,0,0,1-7.7-11.73,50,50,0,0,1-5.32-12.61,29.53,29.53,0,0,1,0-14.11c.65-2.71,1.55-5.36,2.44-8,.4-1.19.8-2.39,1.17-3.59.12-.38.22-.76.35-1.13.05-.16.14-.33.18-.5.17-.65.49-.11-.44-.05l-.92-.18c-.34-.22-.22-.19-.06.23s.37.66.53,1a17.13,17.13,0,0,1,.72,2.84q.72,3,1.6,5.93A56.45,56.45,0,0,0,338,317.46c3.08,5.65,7.89,10.07,11.74,15.17a24.48,24.48,0,0,1,4.8,9.6c.29,1.37,2.76,1,2.48-.36Z"/><path class="cls-1" d="M375.44,269.8c1.89-5.57,7.82-9.3,12.57-12.22,2.87-1.76,5.8-3.42,8.71-5.11l5.28-3.08,2.53-1.47,1.27-.74c.37-.22.67-.59.85-.32.3.44-.28,1.62-.41,2-.28.86-.55,1.72-.83,2.58q-.81,2.49-1.66,5c-1.18,3.41-2.46,6.79-3.93,10.08-2.79,6.21-6.32,12.46-11.28,17.21-5.35,5.12-12.6,8.32-19.56,10.62-1.26.42-1.4,2.22.18,1.7,6.95-2.3,14-5.47,19.62-10.27s9.79-11.75,12.88-18.53c1.63-3.57,3-7.23,4.31-10.93.64-1.85,1.25-3.71,1.85-5.57.45-1.39,1.48-3.3,1.14-4.8-.38-1.7-2.21-1.21-3.31-.58-2,1.13-3.94,2.3-5.91,3.44-3.63,2.12-7.28,4.21-10.89,6.35-6,3.56-13.33,8-15.7,15-.19.58.5.81.93.76a1.66,1.66,0,0,0,1.36-1.08Z"/><path class="cls-1" d="M373.61,278.32a88.18,88.18,0,0,1-14.23-48.76c0-.79-1.88-1.32-2.31-.66a54,54,0,0,0-6.53,45.21A71.45,71.45,0,0,0,356.32,289a79.25,79.25,0,0,0,10,13.9c.63.71,3,.58,2-.53a79,79,0,0,1-8.91-12.05,65.89,65.89,0,0,1-6-14.31,54.85,54.85,0,0,1-1.07-30.34,52.88,52.88,0,0,1,6.9-15.68l-2.31-.67a89,89,0,0,0,14.37,49.16,1.75,1.75,0,0,0,1.57.73c.4,0,1.05-.34.71-.85Z"/><path class="cls-1" d="M331.7,484.16c-17.28,9.29-32.92,21.41-48.15,33.69-3.51,2.83-8.1,5.68-9.49,10.22-.19.62,1.29.45,1.46-.13,1.28-4.2,5.74-6.89,9-9.5q5.5-4.44,11.07-8.76c7.5-5.81,15.14-11.43,23.09-16.6,4.45-2.89,9-5.64,13.67-8.15.87-.47.08-1.15-.62-.77Z"/><path class="cls-1" d="M250.94,458.23c-1.61,4.49-1.69,9.46-1.27,14.16a52.13,52.13,0,0,0,3.4,14.62c2.21,5.57,5.15,10.81,7.87,16.14,2.32,4.53,4.61,9.12,6.7,13.76,2.23,4.93,4.54,10.46,4.27,16,0,.56,1.43.27,1.45-.19.23-4.71-1.39-9.35-3.16-13.64-1.9-4.57-4.19-9-6.36-13.42-2.63-5.38-5.62-10.58-8.07-16.06a54.83,54.83,0,0,1-4.34-14.83c-.77-5.49-.94-11.43,1-16.72.16-.45-1.28-.27-1.45.2Z"/><path class="cls-1" d="M350.07,428a33.92,33.92,0,0,1-6.76,7.73,42.83,42.83,0,0,1-8.32,6.17,187.85,187.85,0,0,0-22.6,14.24q-6.11,4.53-11.89,9.48c-.31.27,1,.13,1.32-.1a198.58,198.58,0,0,1,22.25-16.58c3.93-2.49,8-4.78,12.07-7a43.45,43.45,0,0,0,7.8-5.7,35.78,35.78,0,0,0,7.56-8.49c.11-.19-1.22-.11-1.43.25Z"/><path class="cls-1" d="M280,396.2c0,10.18,2.33,20.25,4.87,30.05,2.75,10.62,6,21.12,8.51,31.81a116.6,116.6,0,0,1,2.8,16.47c0,.58,1.51.25,1.45-.38-.86-10.22-3.61-20.22-6.32-30.07-2.88-10.42-6-20.81-8-31.44a88,88,0,0,1-1.81-16.58c0-.69-1.46-.43-1.46.14Z"/><path class="cls-1" d="M377.61,368c-5.35,5.92-10.63,12.09-16.8,17.17-6.66,5.47-14.57,9.08-21.85,13.6A65.22,65.22,0,0,0,327.14,408c-.63.64.76.86,1.21.41,6.37-6.38,14.18-10.51,21.91-15a72.22,72.22,0,0,0,19.42-15.11c3.12-3.23,6.12-6.58,9.14-9.91.6-.68-.78-.89-1.21-.42Z"/><path class="cls-1" d="M311.21,348.29a79.4,79.4,0,0,0-.87,28.42,48,48,0,0,0,3.7,12.57c1.89,4.19,3.88,8.33,5.66,12.58,1.87,4.48,3.74,9.19,4.23,14.06.07.61,1.52.27,1.45-.39a46.16,46.16,0,0,0-3.5-12.27c-1.71-4.27-3.67-8.44-5.59-12.61a52,52,0,0,1-4.1-12.06A71.94,71.94,0,0,1,311,363.8a79.84,79.84,0,0,1,1.7-15.64c.14-.67-1.34-.48-1.47.13Z"/><path class="cls-1" d="M395.71,315.5c-4.38,6.32-8.88,13.92-15.93,17.57-8.15,4.21-17.38,5.79-25.25,10.62-.83.51.43.73.9.44,6.38-3.91,13.68-5.67,20.55-8.47a32,32,0,0,0,8.46-4.66,42.51,42.51,0,0,0,6.4-6.8c2.2-2.79,4.19-5.75,6.22-8.67.38-.54-1.08-.43-1.35,0Z"/><path class="cls-1" d="M330.81,296.84a69.76,69.76,0,0,0,2.92,23.5,57.88,57.88,0,0,0,4.33,10.83,42.31,42.31,0,0,0,6.34,8.77c3,3.3,6.46,6.69,7.81,11.09.16.53,1.6.13,1.44-.39-1.11-3.66-3.69-6.64-6.21-9.42a55.78,55.78,0,0,1-6.95-8.69c-4.06-6.82-6.34-14.76-7.52-22.56a64.39,64.39,0,0,1-.71-13.3c0-.62-1.42-.35-1.45.17Z"/><path class="cls-1" d="M405.68,247.06a128.1,128.1,0,0,1-17.92,19.1c-2.84,2.44-5.91,4.6-8.77,7s-5.6,5-7.24,8.29c-.13.28,1.24.16,1.43-.23,1.71-3.45,4.71-6.14,7.64-8.55s5.8-4.46,8.57-6.85A129.29,129.29,0,0,0,407,247c.31-.4-1.09-.23-1.32.07Z"/><path class="cls-1" d="M355.9,233.08c.23,5.91-.75,11.85-.87,17.76a59.37,59.37,0,0,0,1,12.06A48.82,48.82,0,0,0,361,276c2.6,5,5.25,10.07,7.87,15.1.25.48,1.65,0,1.45-.38l-7-13.48c-2.15-4.12-4.32-8.3-5.45-12.83-1.82-7.3-1.39-14.87-.89-22.29a89.43,89.43,0,0,0,.39-9.4c0-.43-1.47-.15-1.44.39Z"/><path class="cls-1" d="M396.18,186.1A75.29,75.29,0,0,1,387,207.61c-3.82,6.13-8.12,12-12.18,18-.1.15,1.19.1,1.43-.25,4.06-6,8.36-11.83,12.18-18a75.53,75.53,0,0,0,9.19-21.51c.08-.31-1.34-.11-1.43.25Z"/><path class="cls-1" d="M355.21,181.7C357.51,198,369.08,211,374.92,226a43.9,43.9,0,0,1,3.12,13.1c0,.79,1.52.58,1.47-.09-1.06-16.56-12.64-30-19-44.65a51,51,0,0,1-3.85-13c-.1-.7-1.55-.34-1.45.39Z"/><path class="cls-1" d="M378.48,230.76c4.79-3.4,9.72-6.6,14.5-10,.8-.57-.4-1-1-.6-4.77,3.42-9.7,6.62-14.49,10-.8.57.39,1,.94.6Z"/><path class="cls-1" d="M381,218.75c5-2.93,10.28-5.34,15.21-8.36.25-.14.38-.37.13-.56s-.8,0-1,.13c-4.93,3-10.22,5.43-15.21,8.36-.24.14-.37.37-.12.57s.79,0,1-.14Z"/><path class="cls-1" d="M388.92,206.92c3.12-2.08,6.36-4,9.42-6.14.21-.16.41-.41.12-.6a1.11,1.11,0,0,0-1,.13c-3.05,2.18-6.3,4.07-9.42,6.14-.22.15-.41.41-.12.59a1.12,1.12,0,0,0,1-.12Z"/><path class="cls-1" d="M403.26,257.59a68.32,68.32,0,0,0-7.26,1.08c-.29.06-.68.37-.59.7s.57.37.86.31a63.38,63.38,0,0,1,6.86-1c.32,0,.76-.22.8-.59s-.38-.51-.67-.48Z"/><path class="cls-1" d="M399,270.27c-6.08.36-12.14,1-18.21,1.38-.84.06-1.09,1.2-.11,1.14,6.07-.42,12.13-1,18.21-1.38.84-.05,1.09-1.2.11-1.14Z"/><path class="cls-1" d="M392,281.29c-6.3.44-12.57,1.06-18.86,1.51-.24,0-.86.1-1,.36s.09.32.36.3c6.29-.46,12.57-1.07,18.86-1.52.24,0,.85-.1,1-.36s-.09-.31-.35-.29Z"/><path class="cls-1" d="M390.81,335.22c-3.91-.64-7.87-1.11-11.82-1.38a1,1,0,0,0-.95.42c-.15.31.13.48.41.5,3.84.26,7.7.7,11.49,1.32a1.17,1.17,0,0,0,1-.27c.19-.21.17-.54-.16-.59Z"/><path class="cls-1" d="M386,341.75c-7.06-.9-14.17-1.44-21.22-2.38-.32-.05-1.66.51-.93.6,7.05.95,14.15,1.48,21.21,2.38.33,0,1.66-.51.94-.6Z"/><path class="cls-1" d="M376.11,348.77c-6.69-1.48-13.45-2.55-20.19-3.71-.69-.12-1.48.85-.51,1,6.63,1.13,13.28,2.19,19.85,3.64a1.05,1.05,0,0,0,1-.27c.17-.24.17-.6-.18-.68Z"/><path class="cls-1" d="M372.53,387.08l-12.48-.83c-.29,0-.82.11-1,.4s.13.4.4.42l12.48.83c.29,0,.82-.11,1-.4s-.13-.4-.4-.42Z"/><path class="cls-1" d="M365.8,397q-9-1.62-18-2.71c-.73-.09-1.47.95-.5,1.07q9,1.1,18,2.71c.73.13,1.46-.9.5-1.07Z"/><path class="cls-1" d="M354,407.8c-7-1.07-14-2.3-21-3.86-.47-.1-1.7.62-.88.8,6.94,1.55,13.94,2.79,21,3.86a1.23,1.23,0,0,0,1-.28c.16-.21.22-.47-.14-.52Z"/><path class="cls-1" d="M339.29,416.88c-4.06-1.1-8.21-1.8-12.27-2.9a1.62,1.62,0,0,0-1,.18c-.13.07-.5.32-.17.4,4.05,1.1,8.21,1.8,12.26,2.9a1.52,1.52,0,0,0,1-.18c.13-.07.49-.31.17-.4Z"/><path class="cls-1" d="M341.77,447.76A119.77,119.77,0,0,1,329.39,446a1.69,1.69,0,0,0-1,.18c-.12.06-.5.3-.18.37a121.68,121.68,0,0,0,12.62,1.8,1.63,1.63,0,0,0,1-.28c.21-.16.21-.27-.08-.3Z"/><path class="cls-1" d="M332.46,457.75c-6.22-.79-12.46-1.51-18.72-1.81-.64,0-1.51.91-.53.95,6.26.3,12.5,1,18.72,1.81.65.08,1.51-.83.53-.95Z"/><path class="cls-1" d="M322,467.59c-6.64-.78-13.33-1.15-20-1.4-.28,0-.83,0-1,.27s-.26.37.1.38c6.67.25,13.37.62,20,1.41.36,0,1.68-.57.93-.66Z"/><path class="cls-1" d="M325.82,501.34c-5.16-1-10.3-2.12-15.5-2.94a1.28,1.28,0,0,0-1,.27c-.19.21-.2.44.13.49,5.19.82,10.34,2,15.5,2.94a1.24,1.24,0,0,0,1-.27c.2-.21.2-.42-.13-.49Z"/><path class="cls-1" d="M319.58,511.42c-7.21-1.19-14.43-2.4-21.61-3.8-.39-.08-1.68.55-.91.7,7.18,1.4,14.4,2.61,21.61,3.8.4.07,1.69-.57.91-.7Z"/><path class="cls-1" d="M310.22,522.39c-8.32-1.75-16.66-3.49-25-4.92-.36-.06-1.68.52-.93.65,8.3,1.41,16.55,3.13,24.79,4.87.37.07,1.64-.51,1.18-.6Z"/><path class="cls-1" d="M296.67,533.52c-6.88-2.22-13.93-3.87-20.92-5.75-.63-.17-1.71.75-.83,1,7,1.88,14,3.53,20.92,5.75.62.21,1.7-.7.83-1Z"/><path class="cls-1" d="M336.79,314.42l-1.12,11.52c-.07.77,1.41.59,1.47-.1l1.12-11.51c.07-.77-1.4-.59-1.47.09Z"/><path class="cls-1" d="M344.12,326c-.71,3.68-1.06,7.41-1.79,11.09-.11.52,1.35.29,1.45-.19.73-3.68,1.07-7.42,1.79-11.09.1-.53-1.36-.29-1.45.19Z"/><path class="cls-1" d="M350.24,344.11c.69-3.38,1.36-6.77,1.91-10.18.11-.69-1.37-.49-1.47.13-.55,3.4-1.22,6.79-1.9,10.17-.14.69,1.34.49,1.46-.12Z"/><path class="cls-1" d="M315,360.47c-1.5,5.22-3,10.46-4.48,15.68-.18.66,1.29.49,1.47-.12,1.5-5.22,3-10.46,4.48-15.69.18-.65-1.29-.48-1.47.13Z"/><path class="cls-1" d="M320.38,373.46c-1.71,6.21-3.07,12.52-4.87,18.71-.19.66,1.29.49,1.47-.12,1.8-6.19,3.16-12.5,4.87-18.72.18-.66-1.3-.49-1.47.13Z"/><path class="cls-1" d="M326.81,384.78c-1.64,6.86-3.86,13.57-5.64,20.39-.07.26,1.34.08,1.43-.27,1.78-6.82,4-13.53,5.63-20.39.07-.27-1.34-.08-1.42.27Z"/><path class="cls-1" d="M360.17,252q-1.14,8.63-2.07,17.27c-.05.47,1.4.19,1.44-.22q.93-8.65,2.07-17.28c.06-.45-1.39-.18-1.44.23Z"/><path class="cls-1" d="M365.24,265.58c-.42,5.38-.56,10.78-1.2,16.14-.06.48,1.39.21,1.44-.21.64-5.36.78-10.77,1.2-16.15,0-.49-1.41-.19-1.44.22Z"/><path class="cls-1" d="M288.08,417.3c-1.24,2.71-2.26,5.5-3.54,8.2-.11.24.5.16.58.15.25,0,.73-.15.85-.4,1.28-2.7,2.3-5.5,3.54-8.21.12-.24-.49-.16-.58-.14-.24,0-.73.14-.85.4Z"/><path class="cls-1" d="M294.06,430.19c-1.43,3.67-3.42,7.08-5,10.7-.3.71,1.15.6,1.36.1,1.54-3.63,3.53-7,5-10.71.28-.71-1.16-.6-1.37-.09Z"/><path class="cls-1" d="M299.13,442.44q-3,7.44-5.82,15c-.16.44,1.27.27,1.44-.19q2.79-7.55,5.83-15c.17-.42-1.26-.26-1.45.2Z"/><path class="cls-1" d="M257.11,472.19l-3.55,15.46c-.09.41,1.35.18,1.44-.23L258.55,472c.09-.41-1.35-.18-1.44.23Z"/><path class="cls-1" d="M263.73,486.27c-.92,5.37-2,10.72-3.18,16-.08.37,1.35.15,1.44-.24q1.81-8,3.17-16c.07-.39-1.36-.14-1.43.24Z"/><path class="cls-1" d="M271.11,497.86c-1.29,5.94-2.62,11.88-3.82,17.84-.11.55,1.35.32,1.45-.18,1.2-6,2.53-11.9,3.82-17.84.11-.55-1.35-.32-1.45.18Z"/><path class="cls-1" d="M380.28,240.41c1.66-3.23,4.76-5.49,7-8.29a53.4,53.4,0,0,0,6.3-9.93,58.61,58.61,0,0,0,5.55-23.5c.23-5.26.17-10.54.2-15.8,0-.52-1.92-1.47-2.25-1l-5.34,7.76a57.58,57.58,0,0,1-5.23,7.09c-4,4.19-8,8.25-11.25,13.09l2.26,1a44.5,44.5,0,0,0-9.12-17c-2.1-2.49-4.59-4.57-6.87-6.88a25.09,25.09,0,0,1-3.26-3.94c-.82-1.27-1.21-2.68-2.84-3.1s-1.59,1.1-1.67,2.28c-.12,1.85-.17,3.71-.15,5.56a69.93,69.93,0,0,0,1.21,12,59.41,59.41,0,0,0,7.95,20.78c2.26,3.56,4.66,7.1,7.21,10.46a56.5,56.5,0,0,0,4.05,4.69,26,26,0,0,0,4,4c.32.22,1.2.83,1.61.62s.21-.45-.16-.7c-1.59-1.08-2.74-2.73-4.07-4.11a48.94,48.94,0,0,1-4.11-5c-2.48-3.4-4.95-6.91-7.11-10.51a61,61,0,0,1-7.87-24.28c-.15-1.29-.94-14.67.18-14.53l-1.39-.61c.41.35.72,1.41,1,1.89a19.65,19.65,0,0,0,1.39,1.9,39.37,39.37,0,0,0,2.85,3.06,73.94,73.94,0,0,1,6.45,6.56,43.46,43.46,0,0,1,8.41,16c.12.47,1.89,1.53,2.26,1,3.2-4.84,7.28-8.9,11.25-13.09a55.25,55.25,0,0,0,5.08-6.88l5.48-8-2.25-1c-.06,9,.38,18.16-1.53,27a53.22,53.22,0,0,1-9.62,20.87,44.61,44.61,0,0,1-4.28,4.93,17.62,17.62,0,0,0-3.61,4.5c-.27.52,2,1.64,2.24,1.1Z"/></g></g></svg>