<svg xmlns="http://www.w3.org/2000/svg" viewBox="0 0 1079.98 537.25"><defs><style>.cls-1{fill:#8486a3;}.cls-2{fill:#530e33;}</style></defs><g id="Calque_2" data-name="Calque 2"><g id="Ordinateur"><path class="cls-1" d="M196,487.83c-1.18-27.65-2.85-55.28-5.43-82.83q-3-31.81-7.72-63.43c-2.79-18.46-6.07-36.84-9.48-55.19-1.73-9.34-3.49-18.67-5.22-28-2.07-11.15-4-22.32-6.6-33.35-5.52-23.25-14.13-47.27-31.78-64.17a83.15,83.15,0,0,0-6.78-5.79c-1.73-1.34-7,1.18-4.54,3.05,19.38,14.94,29.35,38.27,35.5,61.3,3,11.38,5.16,23,7.3,34.54,1.72,9.38,3.49,18.76,5.24,28.14,3.4,18.23,6.73,36.47,9.6,54.79q4.8,30.63,7.9,61.5c2.65,26.39,4.42,52.87,5.69,79.36q.27,5.82.52,11.64c.1,2.2,5.91.95,5.8-1.55Z" transform="translate(-0.52)"/><path class="cls-1" d="M803.35,461.29c-3.13-41.18-5.88-82.64-14.07-123.2-8.13-40.18-22.51-78.49-40.7-115.16-10-20.14-24.63-44-17-67.28,6.85-20.84,28.37-32.15,37.3-51.88,4.46-9.85,5.14-21-1.06-30.25a48.27,48.27,0,0,0-10.23-10.64A102.87,102.87,0,0,0,745,54.13c-17.88-10.3-40.57-12.74-60.42-7.44-5.21,1.39-9.86,4.12-15,5.78a18.12,18.12,0,0,1-7,.58,30.16,30.16,0,0,0-7.7.65,40.54,40.54,0,0,0-24.26,15.74c-6.72,9.24-7.67,21.31-9.48,32.24-1,5.91-2.51,11.6-4.05,17.38a123.32,123.32,0,0,1-3.62,12.41,40.46,40.46,0,0,1-6.86,11.39c-1.19,1.42,2.37.81,2.86.68,10.35-2.61,21-4,31.18-7.18a81,81,0,0,0,24.53-12.2c6.56-4.92,12.32-11.34,14.87-19.27a42.37,42.37,0,0,0,.06-24.71A37.87,37.87,0,0,0,663.59,59c-1-.61-2.75,0-3.73.32-.3.11-2.6,1.12-1.73,1.66,14.14,8.66,20.27,25,17.26,41-3.09,16.44-18.91,26.92-33.71,32-10.57,3.64-21.79,4.93-32.6,7.66l2.87.68a42.58,42.58,0,0,0,7-11,93.06,93.06,0,0,0,3.66-12.13c1.44-5.44,3-10.8,4-16.35,1-5.9,1.75-11.85,3.06-17.7,1.19-5.33,2.76-10.66,5.77-15.27a36,36,0,0,1,10.2-10.26c3.8-2.52,8.11-4.37,12.73-4.26a43.17,43.17,0,0,0,7,0,36.11,36.11,0,0,0,8.1-2.2c4.67-1.81,9-4.13,14-5.22a68.14,68.14,0,0,1,15.4-1.51,73.14,73.14,0,0,1,43.68,14.21A79.73,79.73,0,0,1,757.87,70c7.74,8,10.65,18.35,7.48,29.09-6.2,21-26.81,32.24-36.64,51-11.21,21.41-.78,44.75,9.08,64.45,9.78,19.54,19.13,39.22,26.85,59.68a420.31,420.31,0,0,1,16.52,54.65c8.78,38.43,12.05,77.85,15.09,117.07q.66,8.46,1.3,16.93c.08,1,5.92,0,5.8-1.56Z" transform="translate(-0.52)"/><path class="cls-1" d="M312.67,535.28c.36-19.46,1.08-38.92,2.48-58.33,1.42-19.85,3.55-39.66,6.8-59.29A397.86,397.86,0,0,1,335.1,361a214.74,214.74,0,0,1,24.24-51.16,167.25,167.25,0,0,1,16.29-21.61c5.65-6.21,12.09-11.93,19.65-15.69a44.77,44.77,0,0,1,5.59-2.32c.53-.19,2.39-.91,1.72-1.71s-3.08.07-3.75.3c-17.08,5.83-29.42,19.58-39.65,33.86a214.75,214.75,0,0,0-26.91,50.86c-6.74,18.36-11.13,37.66-14.63,56.87-3.6,19.75-6,39.71-7.65,59.71-1.64,19.8-2.51,39.66-3,59.52q-.09,3.58-.15,7.17c0,1,5.76.18,5.79-1.55Z" transform="translate(-0.52)"/><path class="cls-2" d="M1047.3,298.51a78.94,78.94,0,0,0-11.69-34.29,73.4,73.4,0,0,0-28.86-26.4q-18.24-9.47-42.52-7.89-24.45,1.59-41.37,13.35a73.29,73.29,0,0,0-25.27,29.92,78.78,78.78,0,0,0-7.14,35.52l-32.18,2.09-7.75-119L770.73,197,757.91,0,696.12,4l.34,5.29,23.85-1.55,12.48,191.69L705,201.26a49.55,49.55,0,0,0-7.18-20.19,46.33,46.33,0,0,0-18.14-16.59q-11.47-6-26.75-5t-26,8.4a46,46,0,0,0-15.89,18.81,49.1,49.1,0,0,0-4.51,20.94l-69.71,4.53-1.32-20.27q-1.11-16.94,1.13-29t8.54-18.84q6.31-6.75,17.39-7.49a32.12,32.12,0,0,1,15.1,2.5,30.07,30.07,0,0,1,7.79,4.84,25.78,25.78,0,0,0-9.64-1.24A21,21,0,0,0,562.3,149c-3.93,3.82-5.7,8.9-5.29,15.2q.45,7.07,4,11.25a19.23,19.23,0,0,0,8.49,5.88,24.92,24.92,0,0,0,9.61,1.37,22.2,22.2,0,0,0,14.36-6.56q6.22-6,5.53-16.68a26.29,26.29,0,0,0-5.23-13.66,34.9,34.9,0,0,0-13.29-10.92q-8.52-4.2-20.25-3.42-19.72,1.28-33.63,11a60.57,60.57,0,0,0-20.92,25.2q-7,15.51-5.8,34.32l.82,12.67-23.32,1.52.4,6.25,23.33-1.51,7.31,112.24-52,3.39-2.26-34.83a57.86,57.86,0,0,1-17.36,7.18,106.93,106.93,0,0,1-19.63,3.29l1.74,26.8L383,341.23l-7.36-113.09L393.93,227l-.35-5.25L338,225.32l2.4,36.93a79.38,79.38,0,0,0-7.72-18.1A42.19,42.19,0,0,0,319,229.67a30.45,30.45,0,0,0-18.85-4.45c-6.17.4-11.33,2.08-15.44,5.06a26.19,26.19,0,0,0-9,11,28.78,28.78,0,0,0-2.36,13.38,23.63,23.63,0,0,0,7.17,15.85q6.56,6.45,16.5,5.81,9.79-.65,15.66-7.16a19.79,19.79,0,0,0,5.29-15c-.43-6.55-2.86-11.73-7.28-15.59s-9.88-5.55-16.33-5.13a23.53,23.53,0,0,0-5.47,1,24.55,24.55,0,0,1,12.16-3.82,25.44,25.44,0,0,1,15.57,3.9,41.2,41.2,0,0,1,12.58,12.95,76.29,76.29,0,0,1,8.85,19.86,111.19,111.19,0,0,1,4.22,24.4l3.38,52-56.79,3.69a50.73,50.73,0,0,0-7.52-22.13,47.21,47.21,0,0,0-18.56-17q-11.72-6.09-27.34-5.08t-26.61,8.59A47.1,47.1,0,0,0,192.61,331,50.69,50.69,0,0,0,188,353.92l-45.2,2.94-8.64-132.73,42.54-2.77q40.64-2.64,66-15.25t36.47-33.62q11.08-21,9.28-48.81T272.92,76.06Q259.16,56.25,232.34,46.6t-67.45-7L17.14,49.23l.54,8.34,38.71-2.52L79,361.54l-41.28,3.1L38,370l150.51-9.8a50.36,50.36,0,0,0,7.3,20.28,47,47,0,0,0,18.61,17q11.77,6.09,27.5,5.07t26.45-8.58a47.22,47.22,0,0,0,16.2-19.24,50.43,50.43,0,0,0,4.6-21.05l130.13-8.47,5.58,85.77a52.06,52.06,0,0,0,3.66,16.77,22,22,0,0,0,10.21,11.18q7.17,3.9,20.17,3.06,16.6-1.08,26.44-9.19a45.36,45.36,0,0,0,14.14-20.36l-4.83-2a37.19,37.19,0,0,1-9,14.17q-5.64,5.34-11.52,5.73-5.51.36-8.17-3.57c-1.79-2.62-2.9-7.29-3.34-14l-5.86-90.05,119.47-7.78-.41-6.25-31.34,2-7.3-112.25,69.65-4.53a49.47,49.47,0,0,0,7.31,21.16,46,46,0,0,0,18.19,16.59q11.51,6,26.9,5t25.87-8.4A46.12,46.12,0,0,0,701,229.44a49.6,49.6,0,0,0,4.5-21.93l107.57-7,7.34,112.77-18.24,1.19.41,6.25L890.82,315a79.13,79.13,0,0,0,11.77,35.1,73.18,73.18,0,0,0,28.94,26.39q18.3,9.46,42.75,7.88T1015.42,371a73.32,73.32,0,0,0,25.19-29.91,79.14,79.14,0,0,0,7.13-36.33l32.77-2.14-.41-6.26ZM122.89,50.72l34-2.21a39.16,39.16,0,0,1,24.32,5.93,57.33,57.33,0,0,1,18,18.8,107,107,0,0,1,11.49,26.42,134.86,134.86,0,0,1,5.1,28.76,132,132,0,0,1-1.34,29,100.55,100.55,0,0,1-8,27.05A56.4,56.4,0,0,1,191,204.76a40,40,0,0,1-23.37,8.81l-34,2.22ZM258.51,369.09a69.11,69.11,0,0,1-2.25,14.79,24.68,24.68,0,0,1-5.41,10.32,13.22,13.22,0,0,1-9.17,4.24,13.41,13.41,0,0,1-9.76-3,24.79,24.79,0,0,1-6.7-9.54,67.58,67.58,0,0,1-4.15-14.37q-1.19-6.37-1.81-13.37l39.31-2.56C258.77,360.28,258.74,364.77,258.51,369.09Zm-39.7-17.17a144.11,144.11,0,0,1,0-15.41,67.05,67.05,0,0,1,2.26-14.74,24.77,24.77,0,0,1,5.4-10.33,13.37,13.37,0,0,1,9.29-4.24,13.21,13.21,0,0,1,9.64,3,24.68,24.68,0,0,1,6.7,9.54,68.47,68.47,0,0,1,4.15,14.33,145.48,145.48,0,0,1,2,15.27ZM636.66,192.13a67.39,67.39,0,0,1,2.2-14.42,24.24,24.24,0,0,1,5.3-10.1,13.88,13.88,0,0,1,18.51-1.2,24.29,24.29,0,0,1,6.55,9.32,67.33,67.33,0,0,1,4.06,14c.78,4.25,1.39,8.74,1.79,13.47l-38.45,2.5Q636.3,198.6,636.66,192.13ZM675.51,224a67,67,0,0,1-2.21,14.46,24.21,24.21,0,0,1-5.28,10.1,13.9,13.9,0,0,1-18.51,1.21,24.13,24.13,0,0,1-6.56-9.33,67.3,67.3,0,0,1-4.06-14.06A141.06,141.06,0,0,1,637,212l38.49-2.51A143.73,143.73,0,0,1,675.51,224Zm324.56,108.44a106.79,106.79,0,0,1-3.51,23q-2.82,10-8.41,16.05a22.08,22.08,0,0,1-29.43,1.92q-6.33-5.24-10.42-14.83a105.86,105.86,0,0,1-6.46-22.36,220.44,220.44,0,0,1-3.1-24.36l61.24-4A229.25,229.25,0,0,1,1000.07,332.43ZM938.33,305.6a223.07,223.07,0,0,1,0-23.83,105.75,105.75,0,0,1,3.52-22.91q2.81-10.05,8.4-16.06a22.09,22.09,0,0,1,29.44-1.92q6.32,5.24,10.42,14.83A106.63,106.63,0,0,1,996.52,278a224.94,224.94,0,0,1,3.06,23.64Z" transform="translate(-0.52)"/><path class="cls-2" d="M843.32,118.79a22.1,22.1,0,0,0-16.79-5.62,22.88,22.88,0,0,0-21.6,24.62,22.17,22.17,0,0,0,7.75,15.9,22.5,22.5,0,0,0,16.85,5.56A22.67,22.67,0,0,0,851,134.79,22.51,22.51,0,0,0,843.32,118.79Z" transform="translate(-0.52)"/><path class="cls-1" d="M729.94,162a53.25,53.25,0,0,1,6.9-17.78,76.7,76.7,0,0,1,10.35-12.81c3.56-3.68,7.29-7.2,10.64-11.07a67.4,67.4,0,0,0,11.49-17.78c3-7.06,4.11-14.91,1.71-22.3-.41-1.27-5.88.31-5.51,1.48,4.43,13.64-3.16,27.65-11.74,37.91-6.85,8.18-15.29,14.9-21.27,23.83a53.52,53.52,0,0,0-8,19.48c-.25,1.25,5.16.4,5.43-1Z" transform="translate(-0.52)"/><path class="cls-1" d="M157.25,209.13a134.53,134.53,0,0,0-7.93-19.63c-4.06-8.22-8.33-16.25-14.45-23.15a123.35,123.35,0,0,0-11.44-11,3.66,3.66,0,0,0-3.89-.23c-.69.31-2.53,1.7-1.46,2.63,7,6.09,13.49,12.52,18.5,20.41a122.68,122.68,0,0,1,6.48,11.93c1.38,2.8,2.79,5.58,4,8.44a120.69,120.69,0,0,1,4.37,12.12c.72,2.31,6.5.72,5.79-1.56Z" transform="translate(-0.52)"/><path class="cls-1" d="M123.06,155.07c-5-8.16-13.19-14.17-22.14-17.36a50.54,50.54,0,0,0-30.44-1c-9.89,2.72-19.19,8.25-25.55,16.39-6.64,8.5-9.83,19.09-16.36,27.67A62.6,62.6,0,0,1,2.24,200.65c-1.24.51-2.8,2.25-.64,2.72,21.35,4.68,43.53,7.21,65.31,4.41a109.31,109.31,0,0,0,31.21-8.43c8.67-3.95,17-9.94,19.87-19.44a25.28,25.28,0,0,0-6.84-25.66c-1-.89-2.77-.49-3.83,0-.63.26-2.52,1.4-1.56,2.29a23.57,23.57,0,0,1,7.14,21.17,22.68,22.68,0,0,1-4.79,10.6,32.05,32.05,0,0,1-10.37,7.84c-8.65,4.41-18.47,6.85-28,8.24a145.87,145.87,0,0,1-30.41,1,227.5,227.5,0,0,1-34.14-5.07L4.52,203a70.94,70.94,0,0,0,24.79-16.67,64,64,0,0,0,8.84-11.74c2.68-4.63,4.87-9.52,7.48-14.19a45.4,45.4,0,0,1,9-11.83,40.62,40.62,0,0,1,11.55-7.25,42,42,0,0,1,27.12-1.75,41.3,41.3,0,0,1,24.32,17.76c.63,1,3,.39,3.83,0s2.22-1.2,1.56-2.29Z" transform="translate(-0.52)"/><path class="cls-1" d="M108.2,153.89c-6.37,1.72-12.71,3.58-18.92,5.84a89.15,89.15,0,0,0-18.65,8.82c-6.54,4.29-11.38,10.65-17.32,15.67a70.41,70.41,0,0,1-20,11.95,56,56,0,0,1-25.81,3.62,1.92,1.92,0,0,0-1.89.87c-.28.65.25,1.1.87,1.16,15.72,1.63,31.48-3.65,44.19-12.78a85.06,85.06,0,0,0,9.4-8c3-2.94,5.87-6.13,9.13-8.81C74.39,168,80.73,165.14,87,162.7a207.23,207.23,0,0,1,21.75-6.9c1.78-.48,1.28-2.39-.51-1.91Z" transform="translate(-0.52)"/><path class="cls-1" d="M94.06,158.57a57.2,57.2,0,0,0-13.58-10.13c-5.76-2.9-12-4.76-18.12-6.59a3,3,0,0,0-2,.34c-.28.15-1,.69-.32.88,6.17,1.84,12.41,3.67,18.16,6.62a56,56,0,0,1,13.18,9.92c.6.58,3.29-.49,2.72-1Z" transform="translate(-0.52)"/><path class="cls-1" d="M69.83,170.55a72.11,72.11,0,0,0-25-10.28c-.78-.16-3.37,1.07-1.82,1.39a69.8,69.8,0,0,1,24.11,10,2.2,2.2,0,0,0,1.89-.06c.2-.08,1.33-.67.82-1Z" transform="translate(-0.52)"/><path class="cls-1" d="M46.86,189.49c-4.61-3.53-10.2-4.89-15.56-6.81a2.56,2.56,0,0,0-2.05.29c-.33.19-.93.84-.27,1.07,5.19,1.86,10.72,3.15,15.18,6.56a2,2,0,0,0,1.91,0c.26-.11,1.3-.72.79-1.11Z" transform="translate(-0.52)"/><path class="cls-1" d="M400.87,270.25a94,94,0,0,0,9.15-3.14,21.89,21.89,0,0,0,7.23-5.26c1.91-2.11,3.52-4.46,5.41-6.58a40.87,40.87,0,0,1,5.43-5.09c7.91-6.16,17.32-8.93,27.1-9.49,24.42-1.39,46.79,11.67,66.75,24.16,5.72,3.57,11.31,7.65,17.51,10.35A29.47,29.47,0,0,0,558,277l-1.7-1.24a118.47,118.47,0,0,1-13.11,8.62,123.72,123.72,0,0,1-13,6.12,121.73,121.73,0,0,1-15.69,5.64,91.25,91.25,0,0,1-16.6,2.63,119,119,0,0,1-34-2.61c-8.64-1.91-17.12-5.29-24.09-10.84a31.74,31.74,0,0,1-9.05-11,26.12,26.12,0,0,1-2.17-14.56c.1-.77-5.56-.25-5.79,1.56-2.58,20.08,17,32.27,33.95,36.55a124.21,124.21,0,0,0,35.68,3.46A108.88,108.88,0,0,0,510.72,299a112.46,112.46,0,0,0,17.74-5.61A168.07,168.07,0,0,0,545,286a123.3,123.3,0,0,0,15.73-10c1.72-1.27-.67-1.46-1.7-1.23a23.09,23.09,0,0,1-15.12-2c-5.52-2.6-10.57-6.19-15.73-9.42-10.85-6.8-21.88-13.41-33.77-18.25-11-4.48-22.58-7.17-34.47-6.88a65.69,65.69,0,0,0-31.66,8.64A47.83,47.83,0,0,0,415,258.57c-2,2.53-4,5.27-6.83,6.93s-6.24,2.32-9.33,3.34c-.53.18-2.38.91-1.71,1.7s3.08-.07,3.74-.29Z" transform="translate(-0.52)"/><path class="cls-1" d="M426.15,260.82c5.53,5.17,12.33,8.43,19.48,10.76,7.95,2.6,16.15,4.71,24.3,6.57a197.1,197.1,0,0,0,53.27,4.65,202,202,0,0,0,30-3.77c.41-.08,1.42-.51,1.27-1.08s-1.26-.37-1.64-.3A193.66,193.66,0,0,1,501,281c-17.13-1.2-33.9-5-50.32-9.89-8-2.38-15.7-5.62-21.86-11.38-.72-.67-3.44.42-2.7,1.12Z" transform="translate(-0.52)"/><path class="cls-1" d="M451.61,273.7A55.25,55.25,0,0,0,462,297.31c.55.74,3.36-.23,2.7-1.12a54.32,54.32,0,0,1-10.16-23.26c-.16-.93-3.07-.25-2.9.77Z" transform="translate(-0.52)"/><path class="cls-1" d="M482.3,280.7a59.26,59.26,0,0,0,12.54,19.24c.51.49,3.12-.59,2.74-1a58.68,58.68,0,0,1-12.39-19c-.27-.65-3.09.31-2.89.77Z" transform="translate(-0.52)"/><path class="cls-1" d="M657.46,61.25c.34,3.43.93,6.84,1.17,10.28a41,41,0,0,1-.52,9.52,61.5,61.5,0,0,1-6,17.7A98.84,98.84,0,0,1,629.2,127.8a142.57,142.57,0,0,1-17,12.81c-.47.3-.77.83-.23,1.22a2.23,2.23,0,0,0,2.06-.25c10.79-7,20.86-15.19,29.12-25.09,8.1-9.71,14.92-21.18,17.52-33.67a44.47,44.47,0,0,0,1-10.42c-.13-4-.86-8-1.25-11.93-.11-1-3-.39-2.9.78Z" transform="translate(-0.52)"/><path class="cls-1" d="M659.73,73.91a62.62,62.62,0,0,0-31.55,7.76c-1.72,1-.17,2.61,1.31,1.79a59.4,59.4,0,0,1,30-7.35c1.69,0,2.2-2.16.24-2.2Z" transform="translate(-0.52)"/><path class="cls-1" d="M652.78,98.35c-10.07.52-20.26,1.18-29.71,5-.53.22-1.09.88-.69,1.44s1.41.41,2,.19c8.92-3.6,18.67-4.08,28.16-4.57,1.61-.09,2.26-2.15.28-2.05Z" transform="translate(-0.52)"/><path class="cls-1" d="M636.78,121.8a87.11,87.11,0,0,0-16.78-.06c-.49,0-1.54.35-1.65.94s.87.59,1.23.55a80.14,80.14,0,0,1,15.41.07,2.75,2.75,0,0,0,2-.55c.4-.36.38-.88-.26-1Z" transform="translate(-0.52)"/></g></g></svg>