<svg xmlns="http://www.w3.org/2000/svg" viewBox="0 0 773.34 375.05"><defs><style>.cls-1{fill:#efddd6;}.cls-2{fill:#530e33;}</style></defs><g id="Calque_2" data-name="Calque 2"><g id="Ordinateur"><path class="cls-1" d="M142.09,340c-.85-19.32-2-38.63-3.89-57.88q-2.14-22.23-5.55-44.3c-2-12.9-4.35-25.74-6.8-38.57q-1.86-9.77-3.73-19.52c-1.49-7.81-2.87-15.64-4.76-23.37-4-16.19-10.22-32.85-22.67-44.49a60.79,60.79,0,0,0-5-4.18c-1.75-1.32-7,1.21-4.55,3,13.63,10.25,20.77,26.36,25.17,42.37,2.18,7.89,3.7,15.93,5.22,24,1.24,6.59,2.51,13.17,3.77,19.75,2.43,12.69,4.8,25.38,6.86,38.14q3.47,21.45,5.68,43.09c1.9,18.44,3.17,36.94,4.08,55.45q.2,4,.37,8c.06,1.33,2.58,1.13,3.35.92,1.21-.32,2.51-1.1,2.45-2.47Z" transform="translate(-0.6)"/><path class="cls-1" d="M576.51,321.48c-2.25-28.86-4.22-57.93-10.15-86.32S550,180,536.85,154.3C529.8,140.52,519.65,124,525.34,108c2.53-7.12,7.8-12.73,12.94-18.09,5.33-5.55,10.76-11.18,13.89-18.33,3-6.73,3.22-14.28-1-20.51a34.49,34.49,0,0,0-7.73-7.76,71.84,71.84,0,0,0-9-6c-13.08-7.21-29.38-8.72-43.75-5-3.78,1-7.16,2.94-10.86,4.09a11.47,11.47,0,0,1-4.21.26,23.72,23.72,0,0,0-5.76.45,30.55,30.55,0,0,0-18.32,11.3c-4.8,6.3-5.59,14.6-6.84,22.16a126.81,126.81,0,0,1-3,12.64,84.43,84.43,0,0,1-2.59,8.66,27.93,27.93,0,0,1-4.84,7.85c-1.21,1.41,2.39.8,2.87.68,7.43-1.83,15.07-2.79,22.4-5a60.31,60.31,0,0,0,17.87-8.63c4.79-3.49,9.08-8,11-13.74a29,29,0,0,0,.1-17.12,26.59,26.59,0,0,0-12-15c-1-.6-2.74,0-3.73.32-.3.11-2.61,1.13-1.73,1.65a25.83,25.83,0,0,1,10.84,12.29,28.67,28.67,0,0,1,1.43,16.41C481,82.83,470,89.83,459.83,93.28c-7.51,2.54-15.5,3.41-23.18,5.3l2.87.68a30.08,30.08,0,0,0,5.05-7.8A65.54,65.54,0,0,0,447.19,83c1.07-4,2.23-7.87,2.95-11.93s1.25-8.27,2.22-12.33a30.55,30.55,0,0,1,4.15-10.36,24.79,24.79,0,0,1,7.31-7A14,14,0,0,1,471.05,39a44.29,44.29,0,0,0,5.76-.06,29.18,29.18,0,0,0,6-1.58c3.25-1.2,6.3-2.84,9.71-3.58a47.76,47.76,0,0,1,10.39-1,56.16,56.16,0,0,1,21.6,4.36,53.66,53.66,0,0,1,9.32,5.24,59.47,59.47,0,0,1,8.21,6.45c5.45,5.32,7.86,12.38,5.81,19.84-4.11,15-19,22.79-26.21,35.87-8.12,14.72-1.1,30.86,5.86,44.49s13.82,27.51,19.42,41.9a286,286,0,0,1,12,38.34c6.34,26.92,8.7,54.57,10.89,82.07q.47,5.86.92,11.74c.08,1.06,5.92,0,5.8-1.55Z" transform="translate(-0.6)"/><path class="cls-1" d="M225.53,373.08c.52-27.49,2-55.07,6.66-82.2a271.76,271.76,0,0,1,9.35-39.19,147.49,147.49,0,0,1,17.24-35.54,110.54,110.54,0,0,1,13-16.54c4.63-4.71,10-8.81,16.29-10.92.53-.18,2.39-.91,1.71-1.7s-3.08.07-3.74.29c-12.25,4.1-21.21,13.58-28.69,23.71A147.87,147.87,0,0,0,238,246.48c-4.82,12.73-8,26.16-10.49,39.53A419.74,419.74,0,0,0,222,327.83c-1.32,15.56-1.95,31.18-2.25,46.8,0,1,5.76.18,5.8-1.55Z" transform="translate(-0.6)"/><path class="cls-2" d="M750.18,208.19a54,54,0,0,0-8.36-23.92,52.09,52.09,0,0,0-20.64-18.41q-13-6.6-30.42-5.5t-29.59,9.31a51.55,51.55,0,0,0-18.08,20.87,53.81,53.81,0,0,0-5.1,24.77l-23,1.46-5.55-83-57.07,3.62L543.18,0,499,2.81l.25,3.68,17.06-1.08,8.92,133.69-19.85,1.26a33.89,33.89,0,0,0-5.13-14.07,32.8,32.8,0,0,0-13-11.58q-8.21-4.15-19.13-3.46t-18.61,5.86a32.24,32.24,0,0,0-11.37,13.12,33.57,33.57,0,0,0-3.23,14.6L385.05,148l-.95-14.14a81,81,0,0,1,.81-20.22q1.59-8.42,6.11-13.14c3-3.14,7.16-4.89,12.44-5.22A23.42,23.42,0,0,1,414.26,97a21.45,21.45,0,0,1,5.57,3.38,18.52,18.52,0,0,0-6.89-.87,15.21,15.21,0,0,0-9.68,4.36q-4.22,4-3.79,10.6a12.91,12.91,0,0,0,2.87,7.84,13.66,13.66,0,0,0,6.07,4.1,18.14,18.14,0,0,0,6.87,1,16.12,16.12,0,0,0,10.28-4.57q4.44-4.2,3.95-11.64a18,18,0,0,0-3.74-9.52A24.85,24.85,0,0,0,416.26,94a28.87,28.87,0,0,0-14.48-2.39q-14.11.9-24.06,7.64a42.49,42.49,0,0,0-15,17.58,48.31,48.31,0,0,0-4.15,23.93l.59,8.84-16.69,1.06.29,4.36L359.49,154l5.23,78.29-37.2,2.36-1.62-24.3a41.68,41.68,0,0,1-12.41,5,78.68,78.68,0,0,1-14.05,2.3l1.25,18.69L275,238l-5.26-78.87,13.06-.83-.24-3.66-39.78,2.52,1.72,25.76A55,55,0,0,0,239,170.27a29.82,29.82,0,0,0-9.75-10.1,22.32,22.32,0,0,0-13.48-3.1,21.12,21.12,0,0,0-11.05,3.53,18.43,18.43,0,0,0-6.44,7.65,19.45,19.45,0,0,0-1.68,9.33,16.3,16.3,0,0,0,5.12,11.06,14.91,14.91,0,0,0,11.8,4.05,16,16,0,0,0,11.2-5,13.58,13.58,0,0,0,3.79-10.45,14.94,14.94,0,0,0-5.21-10.87,15.79,15.79,0,0,0-11.68-3.58,17,17,0,0,0-3.91.67,17.88,17.88,0,0,1,8.7-2.67,18.61,18.61,0,0,1,11.13,2.72,29,29,0,0,1,9,9,52.68,52.68,0,0,1,6.33,13.84,75.51,75.51,0,0,1,3,17l2.42,36.24-40.62,2.58a34.82,34.82,0,0,0-5.38-15.43A33.42,33.42,0,0,0,189,215q-8.39-4.24-19.55-3.54t-19,6a33,33,0,0,0-11.62,13.42,34.59,34.59,0,0,0-3.29,16l-32.33,2L97,156.31l30.43-1.93q29.07-1.84,47.21-10.63t26.09-23.45q7.94-14.65,6.64-34T196.26,53.05q-9.82-13.83-29-20.55T119,27.63L13.3,34.33l.39,5.82,27.69-1.76L57.51,252.14,28,254.31l.25,3.71,107.66-6.84a34.5,34.5,0,0,0,5.22,14.15,33.35,33.35,0,0,0,13.31,11.83q8.41,4.24,19.67,3.54t18.92-6a33.1,33.1,0,0,0,11.59-13.41,34.45,34.45,0,0,0,3.29-14.69l93.08-5.9,4,59.81a35.57,35.57,0,0,0,2.61,11.7,15.58,15.58,0,0,0,7.3,7.8c3.43,1.81,8.24,2.53,14.43,2.13q11.9-.75,18.92-6.4a31.56,31.56,0,0,0,10.11-14.21l-3.46-1.37a25.71,25.71,0,0,1-6.41,9.88q-4,3.74-8.24,4c-2.62.16-4.57-.66-5.85-2.49s-2.07-5.08-2.38-9.75L327.82,239l85.45-5.42-.29-4.36-22.42,1.42-5.22-78.28,49.82-3.16A34,34,0,0,0,440.39,164a32.69,32.69,0,0,0,13,11.57q8.22,4.16,19.23,3.46t18.51-5.86A32.41,32.41,0,0,0,502.48,160a34,34,0,0,0,3.22-15.3l76.95-4.88,5.25,78.65-13,.82.29,4.37,63.11-4a54.38,54.38,0,0,0,8.42,24.49,52.1,52.1,0,0,0,20.7,18.4q13.1,6.6,30.59,5.5t29.42-9.31a51.53,51.53,0,0,0,18-20.86,54,54,0,0,0,5.1-25.34l23.44-1.49-.29-4.36ZM88.94,35.38l24.32-1.55A28.6,28.6,0,0,1,130.66,38a40.66,40.66,0,0,1,12.86,13.12,74.26,74.26,0,0,1,8.22,18.42,93,93,0,0,1,3.65,20.06,90.46,90.46,0,0,1-1,20.2,68.74,68.74,0,0,1-5.74,18.86,39.36,39.36,0,0,1-11,14.18A29,29,0,0,1,121,149L96.63,150.5Zm97,222a47.76,47.76,0,0,1-1.61,10.31,17.19,17.19,0,0,1-3.87,7.21,9.58,9.58,0,0,1-6.57,2.95,9.74,9.74,0,0,1-7-2.09,17.31,17.31,0,0,1-4.8-6.66,46.62,46.62,0,0,1-3-10q-.84-4.44-1.29-9.32L186,248C186.14,251.26,186.12,254.4,186,257.41Zm-28.4-12a98.77,98.77,0,0,1,0-10.74,46,46,0,0,1,1.62-10.28,17,17,0,0,1,3.87-7.2,10.34,10.34,0,0,1,13.53-.86,17.2,17.2,0,0,1,4.8,6.65,47.43,47.43,0,0,1,3,10,100.84,100.84,0,0,1,1.41,10.66ZM456.45,134A46,46,0,0,1,458,123.94a16.81,16.81,0,0,1,3.79-7,10.1,10.1,0,0,1,13.24-.84,16.93,16.93,0,0,1,4.69,6.5,46.29,46.29,0,0,1,2.91,9.77c.56,3,1,6.09,1.28,9.39l-27.51,1.75A93.35,93.35,0,0,1,456.45,134Zm27.79,22.22a45.43,45.43,0,0,1-1.58,10.09,16.84,16.84,0,0,1-3.78,7,9.33,9.33,0,0,1-6.42,2.88,9.49,9.49,0,0,1-6.82-2,16.79,16.79,0,0,1-4.69-6.51,45.65,45.65,0,0,1-2.91-9.8,97.68,97.68,0,0,1-1.34-10l27.53-1.75A97.83,97.83,0,0,1,484.24,156.21ZM716.4,231.85a72.73,72.73,0,0,1-2.51,16,26.6,26.6,0,0,1-6,11.19,14.84,14.84,0,0,1-10.22,4.6,15.07,15.07,0,0,1-10.84-3.26,26.64,26.64,0,0,1-7.45-10.34,71.91,71.91,0,0,1-4.62-15.59,150.25,150.25,0,0,1-2.22-17l43.81-2.78A153.31,153.31,0,0,1,716.4,231.85Zm-44.16-18.72a153.73,153.73,0,0,1,0-16.62,71.93,71.93,0,0,1,2.52-16,26.38,26.38,0,0,1,6-11.2,16.08,16.08,0,0,1,21-1.33,26.74,26.74,0,0,1,7.45,10.34,72.4,72.4,0,0,1,4.62,15.53,153.62,153.62,0,0,1,2.19,16.48Z" transform="translate(-0.6)"/><path class="cls-2" d="M604.28,82.85a17.1,17.1,0,0,0-23.44,1.48,16.09,16.09,0,0,0,1.52,22.86,16.31,16.31,0,0,0,12,3.87,16,16,0,0,0,11.39-5.36,15.3,15.3,0,0,0,4-11.7A15.57,15.57,0,0,0,604.28,82.85Z" transform="translate(-0.6)"/><path class="cls-1" d="M524,112.82a36.61,36.61,0,0,1,4.95-12.42,53.87,53.87,0,0,1,7.43-8.94c6.08-6.12,12.38-12.09,15.83-20.19,2.09-4.92,2.88-10.38,1.19-15.53-.42-1.28-5.89.32-5.51,1.47,3.16,9.59-2.33,19.35-8.46,26.45-4.92,5.68-10.89,10.33-15.16,16.57a36.89,36.89,0,0,0-5.71,13.56c-.25,1.23,5.16.4,5.44-1Z" transform="translate(-0.6)"/><path class="cls-1" d="M114.35,145.62a108.69,108.69,0,0,0-8.12-18.46,58.08,58.08,0,0,0-7-10.42A78.56,78.56,0,0,0,90.09,108a3.67,3.67,0,0,0-3.88-.23c-.68.3-2.55,1.71-1.47,2.63a80,80,0,0,1,9,8.56,58,58,0,0,1,6.93,10.2,102.91,102.91,0,0,1,7.89,18c.74,2.32,6.52.72,5.79-1.55Z" transform="translate(-0.6)"/><path class="cls-1" d="M89.83,107.81c-7.89-12.46-24.39-16.5-38.06-13A36.66,36.66,0,0,0,33.14,105.9c-5.09,5.85-7.38,13.5-12,19.66a43.62,43.62,0,0,1-18.78,14c-1.24.49-2.81,2.26-.64,2.72,15.38,3.28,31.32,5,47,3.09a81.71,81.71,0,0,0,22.75-6c6.28-2.77,12.43-7,14.72-13.74a17.58,17.58,0,0,0-4.84-18.46c-1-.88-2.75-.5-3.83,0-.61.26-2.53,1.4-1.55,2.29a16,16,0,0,1,5,14.83c-1.17,6-5.66,10-11,12.44-12.59,5.82-27.12,6.83-40.78,5.93A167.36,167.36,0,0,1,5.24,139.2l-.64,2.72a51.92,51.92,0,0,0,17.84-11.61,45,45,0,0,0,6.39-8.1c1.94-3.19,3.51-6.59,5.34-9.84A32.4,32.4,0,0,1,40.51,104a27.94,27.94,0,0,1,7.92-5,29.5,29.5,0,0,1,18.74-1.26,29.06,29.06,0,0,1,17.27,12.29c1,1.59,6.65-.27,5.39-2.25Z" transform="translate(-0.6)"/><path class="cls-1" d="M78.36,107c-9.18,2.41-18.78,5.09-26.88,10.2-4.62,2.92-8.07,7.27-12.22,10.75a49.89,49.89,0,0,1-14.42,8.51A40.67,40.67,0,0,1,6.54,139a1.93,1.93,0,0,0-1.9.87c-.27.65.25,1.1.87,1.17,11.31,1.12,22.63-2.5,31.88-8.94A59.84,59.84,0,0,0,44,126.68c2.2-2.08,4.27-4.34,6.62-6.25,3.71-3,8.24-5,12.67-6.67A147.13,147.13,0,0,1,78.88,109c1.78-.47,1.27-2.38-.52-1.91Z" transform="translate(-0.6)"/><path class="cls-1" d="M68.71,110.43a40.8,40.8,0,0,0-9.67-7A76.29,76.29,0,0,0,46,98.75a2.89,2.89,0,0,0-2,.33c-.28.16-1,.7-.33.89a77.75,77.75,0,0,1,12.7,4.46,40.09,40.09,0,0,1,9.67,7c.61.58,3.29-.5,2.72-1Z" transform="translate(-0.6)"/><path class="cls-1" d="M51.38,118.78a52.7,52.7,0,0,0-18-7.21,2.78,2.78,0,0,0-2,.54c-.46.39-.36.73.22.85a50.18,50.18,0,0,1,17.13,6.89,2.24,2.24,0,0,0,1.89-.06c.19-.08,1.33-.68.82-1Z" transform="translate(-0.6)"/><path class="cls-1" d="M34.94,132c-3.33-2.48-7.33-3.44-11.18-4.78a2.52,2.52,0,0,0-2.05.29c-.33.19-.94.84-.27,1.07,3.68,1.28,7.63,2.16,10.8,4.54a2.1,2.1,0,0,0,1.92,0c.25-.11,1.3-.73.78-1.12Z" transform="translate(-0.6)"/><path class="cls-1" d="M288.08,188.69c4.25-1.37,8.52-2.43,11.77-5.71,2.67-2.71,4.71-5.86,7.75-8.24,5.54-4.33,12-6.16,18.82-6.52,17.33-.91,33.3,8.31,47.57,17,4,2.46,8,5.23,12.35,7.08A22.5,22.5,0,0,0,400,193.51l-1.7-1.24a85.08,85.08,0,0,1-18.3,10.1,87.76,87.76,0,0,1-10.88,3.83A63.75,63.75,0,0,1,357.71,208a86.29,86.29,0,0,1-24.25-1.8,42.19,42.19,0,0,1-17.1-7.53c-5.57-4.34-8.88-10.56-7.95-17.72.1-.77-5.57-.25-5.8,1.55-1.85,14.37,12.66,22.78,24.69,25.67a92.93,92.93,0,0,0,25.75,2.36,82.12,82.12,0,0,0,26.34-5.69,124.19,124.19,0,0,0,11.89-5.18,89.89,89.89,0,0,0,11.47-7.13c1.75-1.26-.69-1.45-1.7-1.23-8.24,1.75-15.58-4.36-22.17-8.38-7.72-4.71-15.59-9.24-24-12.53-15.4-6-33.32-6.75-48,1.69a34.25,34.25,0,0,0-9.5,8.11c-1.4,1.73-2.8,3.69-4.74,4.84s-4.39,1.58-6.53,2.27c-.53.17-2.39.92-1.71,1.7s3.07-.08,3.74-.29Z" transform="translate(-0.6)"/><path class="cls-1" d="M305.49,182.07a37.34,37.34,0,0,0,14.08,7.58c5.58,1.77,11.32,3.21,17,4.49a144.58,144.58,0,0,0,38.19,3.34,145.78,145.78,0,0,0,21.63-2.59c.49-.09,1.57-.33,1.65-1s-.84-.66-1.24-.58a142.49,142.49,0,0,1-37.1,2.37c-12.17-.81-24.08-3.45-35.78-6.82-5.74-1.65-11.3-3.89-15.77-8-.73-.66-3.44.44-2.69,1.12Z" transform="translate(-0.6)"/><path class="cls-1" d="M323.67,191a38.15,38.15,0,0,0,7.44,16.52c.56.74,3.36-.24,2.69-1.12a37.27,37.27,0,0,1-7.23-16.17c-.16-.93-3.08-.24-2.9.77Z" transform="translate(-0.6)"/><path class="cls-1" d="M345.62,195.89a41.42,41.42,0,0,0,9,13.44c.36.34,1.48-.06,1.86-.2.21-.07,1.23-.44.88-.77a40.75,40.75,0,0,1-8.83-13.25c-.29-.65-3.1.32-2.9.78Z" transform="translate(-0.6)"/><path class="cls-1" d="M470.91,42.84c.48,4.62,1.26,9,.48,13.66A41.77,41.77,0,0,1,467.07,69a69.08,69.08,0,0,1-16.4,20.18,100.06,100.06,0,0,1-12,8.79c-.48.3-.77.83-.24,1.21s1.57.06,2.06-.24A91.28,91.28,0,0,0,461.42,81.3c5.75-6.76,10.66-14.71,12.56-23.47a30,30,0,0,0,.73-7.5c-.1-2.77-.62-5.51-.9-8.27-.1-1-3-.39-2.9.78Z" transform="translate(-0.6)"/><path class="cls-1" d="M473,51.21a46.38,46.38,0,0,0-22.79,5.48c-1.73.93-.18,2.59,1.3,1.79a42.88,42.88,0,0,1,21.25-5.06,1.64,1.64,0,0,0,1.59-1.2c.07-.78-.76-1-1.35-1Z" transform="translate(-0.6)"/><path class="cls-1" d="M468,68.29c-7.28.36-14.61.85-21.47,3.54-.53.21-1.09.88-.7,1.44s1.41.4,2,.19c6.33-2.49,13.23-2.8,19.93-3.13.61,0,1.53-.45,1.61-1.15s-.78-.92-1.33-.89Z" transform="translate(-0.6)"/><path class="cls-1" d="M456.79,84.72a64.47,64.47,0,0,0-12.19,0c-.5,0-1.55.35-1.66.94s.88.58,1.23.55a57.62,57.62,0,0,1,10.83,0,2.78,2.78,0,0,0,2.05-.55c.41-.36.37-.88-.26-1Z" transform="translate(-0.6)"/></g></g></svg>